<svg xmlns="http://www.w3.org/2000/svg" xmlns:xlink="http://www.w3.org/1999/xlink" width="2000" zoomAndPan="magnify" viewBox="0 0 1500 1499.999933" height="2000" preserveAspectRatio="xMidYMid meet" version="1.0"><defs><g/><clipPath id="f48b6550f1"><path d="M 16.664062 0.898438 L 1369.925781 0.898438 L 1369.925781 136.226562 L 16.664062 136.226562 Z M 16.664062 0.898438 " clip-rule="nonzero"/></clipPath><clipPath id="2d0fb29699"><path d="M 16.664062 22 L 1369.925781 22 L 1369.925781 116 L 16.664062 116 Z M 16.664062 22 " clip-rule="nonzero"/></clipPath><clipPath id="4e3284bfd9"><path d="M 16.664062 199.472656 L 1367.554688 199.472656 L 1367.554688 334.796875 L 16.664062 334.796875 Z M 16.664062 199.472656 " clip-rule="nonzero"/></clipPath><clipPath id="d2e22af8e5"><path d="M 16.664062 221 L 1367.554688 221 L 1367.554688 314 L 16.664062 314 Z M 16.664062 221 " clip-rule="nonzero"/></clipPath><clipPath id="a3bf0cf3f9"><path d="M 19.183594 100.78125 L 1370.074219 100.78125 L 1370.074219 236.109375 L 19.183594 236.109375 Z M 19.183594 100.78125 " clip-rule="nonzero"/></clipPath><clipPath id="5c7bf2c65f"><path d="M 19.183594 122 L 1370.074219 122 L 1370.074219 215 L 19.183594 215 Z M 19.183594 122 " clip-rule="nonzero"/></clipPath><clipPath id="358f425dc6"><path d="M 15 530 L 1366 530 L 1366 595.601562 L 15 595.601562 Z M 15 530 " clip-rule="nonzero"/></clipPath><clipPath id="eaec922b70"><rect x="0" width="1351" y="0" height="66"/></clipPath><clipPath id="20a731f7d4"><rect x="0" width="1442" y="0" height="596"/></clipPath></defs><g transform="matrix(1, 0, 0, 1, 58, 452)"><g clip-path="url(#20a731f7d4)"><g clip-path="url(#f48b6550f1)"><path fill="#173664" d="M 16.664062 136.515625 C 104.597656 136.515625 151.042969 117.574219 192.003906 100.878906 C 230.484375 85.210938 266.847656 70.402344 341.160156 70.402344 C 415.476562 70.402344 451.839844 85.210938 490.320312 100.878906 C 531.3125 117.574219 577.757812 136.515625 665.660156 136.515625 C 753.59375 136.515625 800.039062 117.574219 841 100.878906 C 879.480469 85.210938 915.808594 70.402344 990.15625 70.402344 C 1064.503906 70.402344 1100.835938 85.210938 1139.316406 100.878906 C 1180.304688 117.574219 1226.71875 136.515625 1314.65625 136.515625 C 1402.589844 136.515625 1449.035156 117.574219 1489.996094 100.878906 C 1528.472656 85.210938 1564.804688 70.402344 1639.152344 70.402344 L 1639.152344 0.980469 C 1551.21875 0.980469 1504.769531 19.921875 1463.8125 36.617188 C 1425.332031 52.285156 1389.003906 67.09375 1314.65625 67.09375 C 1240.308594 67.09375 1203.976562 52.285156 1165.496094 36.617188 C 1124.539062 19.921875 1078.089844 0.980469 990.15625 0.980469 C 902.222656 0.980469 855.777344 19.886719 814.816406 36.617188 C 776.335938 52.285156 740.007812 67.09375 665.660156 67.09375 C 591.34375 67.09375 554.980469 52.285156 516.5 36.617188 C 475.542969 19.921875 429.097656 0.980469 341.160156 0.980469 C 253.226562 0.980469 206.78125 19.886719 165.820312 36.617188 C 127.34375 52.285156 90.976562 67.09375 16.664062 67.09375 Z M 16.664062 136.515625 " fill-opacity="1" fill-rule="nonzero"/></g><g clip-path="url(#2d0fb29699)"><path fill="#ffffff" d="M 16.664062 115.03125 C 100.398438 115.03125 142.847656 97.738281 183.90625 80.980469 C 224.402344 64.484375 262.617188 48.914062 341.160156 48.914062 C 419.707031 48.914062 457.957031 64.484375 498.417969 80.980469 C 539.476562 97.707031 581.957031 115.03125 665.660156 115.03125 C 749.363281 115.03125 791.839844 97.738281 832.898438 80.980469 C 873.394531 64.484375 911.609375 48.914062 990.15625 48.914062 C 1068.703125 48.914062 1106.917969 64.484375 1147.414062 80.980469 C 1188.472656 97.707031 1230.917969 115.03125 1314.65625 115.03125 C 1398.359375 115.03125 1440.835938 97.738281 1481.894531 80.980469 C 1522.390625 64.484375 1560.605469 48.914062 1639.152344 48.914062 L 1639.152344 22.46875 C 1555.449219 22.46875 1512.96875 39.757812 1471.910156 56.515625 C 1431.414062 73.011719 1393.199219 88.582031 1314.65625 88.582031 C 1236.109375 88.582031 1197.894531 73.011719 1157.398438 56.515625 C 1116.339844 39.789062 1073.859375 22.46875 990.15625 22.46875 C 906.453125 22.46875 863.972656 39.757812 822.917969 56.515625 C 782.421875 73.011719 744.207031 88.582031 665.660156 88.582031 C 587.113281 88.582031 548.898438 73.011719 508.402344 56.515625 C 467.34375 39.789062 424.863281 22.46875 341.160156 22.46875 C 257.457031 22.46875 214.980469 39.757812 173.921875 56.515625 C 133.457031 73.011719 95.210938 88.582031 16.664062 88.582031 Z M 16.664062 115.03125 " fill-opacity="1" fill-rule="nonzero"/></g><g clip-path="url(#4e3284bfd9)"><path fill="#173664" d="M 16.664062 335.089844 C 104.597656 335.089844 151.042969 316.144531 192.003906 299.453125 C 230.484375 283.78125 266.847656 268.972656 341.160156 268.972656 C 415.476562 268.972656 451.839844 283.78125 490.320312 299.453125 C 531.3125 316.144531 577.757812 335.089844 665.660156 335.089844 C 753.59375 335.089844 800.039062 316.144531 841 299.453125 C 879.480469 283.78125 915.808594 268.972656 990.15625 268.972656 C 1064.503906 268.972656 1100.835938 283.78125 1139.316406 299.453125 C 1180.304688 316.144531 1226.71875 335.089844 1314.65625 335.089844 C 1402.589844 335.089844 1449.035156 316.144531 1489.996094 299.453125 C 1528.472656 283.78125 1564.804688 268.972656 1639.152344 268.972656 L 1639.152344 199.550781 C 1551.21875 199.550781 1504.769531 218.492188 1463.8125 235.1875 C 1425.332031 250.855469 1389.003906 265.667969 1314.65625 265.667969 C 1240.308594 265.667969 1203.976562 250.855469 1165.496094 235.1875 C 1124.539062 218.492188 1078.089844 199.550781 990.15625 199.550781 C 902.222656 199.550781 855.777344 218.460938 814.816406 235.1875 C 776.335938 250.855469 740.007812 265.667969 665.660156 265.667969 C 591.34375 265.667969 554.980469 250.855469 516.5 235.1875 C 475.542969 218.492188 429.097656 199.550781 341.160156 199.550781 C 253.226562 199.550781 206.78125 218.460938 165.820312 235.1875 C 127.34375 250.855469 90.976562 265.667969 16.664062 265.667969 Z M 16.664062 335.089844 " fill-opacity="1" fill-rule="nonzero"/></g><g clip-path="url(#d2e22af8e5)"><path fill="#ffffff" d="M 16.664062 313.601562 C 100.398438 313.601562 142.847656 296.3125 183.90625 279.550781 C 224.402344 263.054688 262.617188 247.484375 341.160156 247.484375 C 419.707031 247.484375 457.957031 263.054688 498.417969 279.550781 C 539.476562 296.277344 581.957031 313.601562 665.660156 313.601562 C 749.363281 313.601562 791.839844 296.3125 832.898438 279.550781 C 873.394531 263.054688 911.609375 247.484375 990.15625 247.484375 C 1068.703125 247.484375 1106.917969 263.054688 1147.414062 279.550781 C 1188.472656 296.277344 1230.917969 313.601562 1314.65625 313.601562 C 1398.359375 313.601562 1440.835938 296.3125 1481.894531 279.550781 C 1522.390625 263.054688 1560.605469 247.484375 1639.152344 247.484375 L 1639.152344 221.039062 C 1555.449219 221.039062 1512.96875 238.328125 1471.910156 255.089844 C 1431.414062 271.585938 1393.199219 287.15625 1314.65625 287.15625 C 1236.109375 287.15625 1197.894531 271.585938 1157.398438 255.089844 C 1116.339844 238.359375 1073.859375 221.039062 990.15625 221.039062 C 906.453125 221.039062 863.972656 238.328125 822.917969 255.089844 C 782.421875 271.585938 744.207031 287.15625 665.660156 287.15625 C 587.113281 287.15625 548.898438 271.585938 508.402344 255.089844 C 467.34375 238.359375 424.863281 221.039062 341.160156 221.039062 C 257.457031 221.039062 214.980469 238.328125 173.921875 255.089844 C 133.457031 271.585938 95.210938 287.15625 16.664062 287.15625 Z M 16.664062 313.601562 " fill-opacity="1" fill-rule="nonzero"/></g><g fill="#ffffff" fill-opacity="1"><g transform="translate(1.025816, 506.109458)"><g><path d="M 9.3125 0 L 9.3125 -132.953125 L 51.46875 -132.953125 L 111.109375 -34.765625 L 170.75 -132.953125 L 212.921875 -132.953125 L 212.921875 0 L 182.90625 0 L 182.90625 -97.4375 L 122.515625 0 L 99.90625 0 L 39.3125 -97.4375 L 39.3125 0 Z M 9.3125 0 "/></g></g></g><g fill="#ffffff" fill-opacity="1"><g transform="translate(231.413185, 506.109458)"><g><path d="M 9.3125 0 L 9.3125 -132.953125 L 149.859375 -132.953125 L 149.859375 -108.828125 L 39.3125 -108.828125 L 39.3125 -77.875 L 149.859375 -77.875 L 149.859375 -55.078125 L 39.3125 -55.078125 L 39.3125 -24.125 L 149.859375 -24.125 L 149.859375 0 Z M 9.3125 0 "/></g></g></g><g fill="#ffffff" fill-opacity="1"><g transform="translate(393.994842, 506.109458)"><g><path d="M 74.078125 0 L 74.078125 -107.6875 L 7.40625 -107.6875 L 7.40625 -132.953125 L 170.75 -132.953125 L 170.75 -107.6875 L 104.078125 -107.6875 L 104.078125 0 Z M 74.078125 0 "/></g></g></g><g fill="#ffffff" fill-opacity="1"><g transform="translate(570.061712, 506.109458)"><g><path d="M 90.984375 1.90625 C 71.484375 1.90625 55.585938 -0.785156 43.296875 -6.171875 C 31.015625 -11.554688 21.960938 -19.375 16.140625 -29.625 C 10.316406 -39.882812 7.40625 -52.234375 7.40625 -66.671875 C 7.40625 -81.109375 10.316406 -93.421875 16.140625 -103.609375 C 21.960938 -113.804688 31.015625 -121.5625 43.296875 -126.875 C 55.585938 -132.195312 71.484375 -134.859375 90.984375 -134.859375 C 110.484375 -134.859375 126.375 -132.164062 138.65625 -126.78125 C 150.9375 -121.40625 159.988281 -113.648438 165.8125 -103.515625 C 171.632812 -93.390625 174.546875 -81.109375 174.546875 -66.671875 C 174.546875 -52.234375 171.632812 -39.914062 165.8125 -29.71875 C 159.988281 -19.53125 150.9375 -11.710938 138.65625 -6.265625 C 126.375 -0.816406 110.484375 1.90625 90.984375 1.90625 Z M 90.984375 -23.359375 C 109.722656 -23.359375 123.332031 -26.742188 131.8125 -33.515625 C 140.300781 -40.296875 144.546875 -51.347656 144.546875 -66.671875 C 144.546875 -81.859375 140.332031 -92.804688 131.90625 -99.515625 C 123.488281 -106.234375 109.847656 -109.59375 90.984375 -109.59375 C 72.242188 -109.59375 58.628906 -106.269531 50.140625 -99.625 C 41.660156 -92.976562 37.421875 -81.992188 37.421875 -66.671875 C 37.421875 -51.347656 41.660156 -40.296875 50.140625 -33.515625 C 58.628906 -26.742188 72.242188 -23.359375 90.984375 -23.359375 Z M 90.984375 -23.359375 "/></g></g></g><g fill="#ffffff" fill-opacity="1"><g transform="translate(758.664075, 506.109458)"><g><path d="M 9.3125 0 L 9.3125 -132.953125 L 50.90625 -132.953125 L 150.625 -30.765625 L 150.625 -132.953125 L 180.625 -132.953125 L 180.625 0 L 139.21875 0 L 39.3125 -102.1875 L 39.3125 0 Z M 9.3125 0 "/></g></g></g><g fill="#ffffff" fill-opacity="1"><g transform="translate(949.735535, 506.109458)"><g><path d="M 84.71875 0 L 84.71875 -43.6875 L 7.40625 -132.953125 L 44.453125 -132.953125 L 99.71875 -69.140625 L 155.171875 -132.953125 L 192.03125 -132.953125 L 114.71875 -43.6875 L 114.71875 0 Z M 84.71875 0 "/></g></g></g><g fill="#ffffff" fill-opacity="1"><g transform="translate(1151.253227, 506.109458)"><g><path d="M 9.3125 0 L 9.3125 -132.953125 L 51.46875 -132.953125 L 111.109375 -34.765625 L 170.75 -132.953125 L 212.921875 -132.953125 L 212.921875 0 L 182.90625 0 L 182.90625 -97.4375 L 122.515625 0 L 99.90625 0 L 39.3125 -97.4375 L 39.3125 0 Z M 9.3125 0 "/></g></g></g><g clip-path="url(#a3bf0cf3f9)"><path fill="#173664" d="M 19.183594 236.398438 C 107.117188 236.398438 153.566406 217.457031 194.523438 200.761719 C 233.003906 185.09375 269.367188 170.28125 343.683594 170.28125 C 417.996094 170.28125 454.359375 185.09375 492.839844 200.761719 C 533.832031 217.457031 580.277344 236.398438 668.179688 236.398438 C 756.113281 236.398438 802.5625 217.457031 843.519531 200.761719 C 882 185.09375 918.328125 170.28125 992.675781 170.28125 C 1067.023438 170.28125 1103.355469 185.09375 1141.835938 200.761719 C 1182.828125 217.457031 1229.242188 236.398438 1317.175781 236.398438 C 1405.109375 236.398438 1451.554688 217.457031 1492.515625 200.761719 C 1530.996094 185.09375 1567.324219 170.28125 1641.671875 170.28125 L 1641.671875 100.859375 C 1553.738281 100.859375 1507.292969 119.804688 1466.332031 136.496094 C 1427.851562 152.167969 1391.523438 166.976562 1317.175781 166.976562 C 1242.828125 166.976562 1206.496094 152.167969 1168.015625 136.496094 C 1127.058594 119.804688 1080.613281 100.859375 992.675781 100.859375 C 904.742188 100.859375 858.296875 119.769531 817.335938 136.496094 C 778.859375 152.167969 742.527344 166.976562 668.179688 166.976562 C 593.867188 166.976562 557.5 152.167969 519.023438 136.496094 C 478.0625 119.804688 431.617188 100.859375 343.683594 100.859375 C 255.746094 100.859375 209.300781 119.769531 168.34375 136.496094 C 129.863281 152.167969 93.5 166.976562 19.183594 166.976562 Z M 19.183594 236.398438 " fill-opacity="1" fill-rule="nonzero"/></g><g clip-path="url(#5c7bf2c65f)"><path fill="#b28735" d="M 19.183594 214.910156 C 102.921875 214.910156 145.367188 197.621094 186.425781 180.863281 C 226.921875 164.367188 265.136719 148.796875 343.683594 148.796875 C 422.226562 148.796875 460.476562 164.367188 500.9375 180.863281 C 541.996094 197.589844 584.476562 214.910156 668.179688 214.910156 C 751.882812 214.910156 794.363281 197.621094 835.421875 180.863281 C 875.917969 164.367188 914.132812 148.796875 992.675781 148.796875 C 1071.222656 148.796875 1109.4375 164.367188 1149.933594 180.863281 C 1190.992188 197.589844 1233.4375 214.910156 1317.175781 214.910156 C 1400.878906 214.910156 1443.359375 197.621094 1484.414062 180.863281 C 1524.910156 164.367188 1563.125 148.796875 1641.671875 148.796875 L 1641.671875 122.347656 C 1557.96875 122.347656 1515.492188 139.636719 1474.433594 156.398438 C 1433.9375 172.894531 1395.722656 188.464844 1317.175781 188.464844 C 1238.628906 188.464844 1200.414062 172.894531 1159.917969 156.398438 C 1118.859375 139.671875 1076.378906 122.347656 992.675781 122.347656 C 908.972656 122.347656 866.496094 139.636719 825.4375 156.398438 C 784.941406 172.894531 746.726562 188.464844 668.179688 188.464844 C 589.632812 188.464844 551.417969 172.894531 510.921875 156.398438 C 469.863281 139.671875 427.386719 122.347656 343.683594 122.347656 C 259.980469 122.347656 217.5 139.636719 176.441406 156.398438 C 135.976562 172.894531 97.730469 188.464844 19.183594 188.464844 Z M 19.183594 214.910156 " fill-opacity="1" fill-rule="nonzero"/></g><g clip-path="url(#358f425dc6)"><g transform="matrix(1, 0, 0, 1, 15, 530)"><g clip-path="url(#eaec922b70)"><g fill="#ffffff" fill-opacity="1"><g transform="translate(0.775213, 51.946203)"><g><path d="M 29.65625 -12.4375 L 38.640625 -12.4375 C 37.816406 -9.914062 36.523438 -7.675781 34.765625 -5.71875 C 33.003906 -3.769531 30.921875 -2.238281 28.515625 -1.125 C 26.117188 -0.0195312 23.519531 0.53125 20.71875 0.53125 C 18.132812 0.53125 15.703125 0.046875 13.421875 -0.921875 C 11.148438 -1.890625 9.144531 -3.242188 7.40625 -4.984375 C 5.664062 -6.722656 4.3125 -8.726562 3.34375 -11 C 2.375 -13.28125 1.890625 -15.710938 1.890625 -18.296875 C 1.890625 -20.878906 2.375 -23.304688 3.34375 -25.578125 C 4.3125 -27.859375 5.664062 -29.867188 7.40625 -31.609375 C 9.144531 -33.347656 11.148438 -34.703125 13.421875 -35.671875 C 15.703125 -36.640625 18.132812 -37.125 20.71875 -37.125 C 23.519531 -37.125 26.113281 -36.566406 28.5 -35.453125 C 30.882812 -34.347656 32.953125 -32.832031 34.703125 -30.90625 C 36.460938 -28.988281 37.753906 -26.773438 38.578125 -24.265625 L 29.59375 -24.265625 C 28.84375 -25.921875 27.640625 -27.222656 25.984375 -28.171875 C 24.335938 -29.117188 22.582031 -29.59375 20.71875 -29.59375 C 18.75 -29.59375 16.957031 -29.082031 15.34375 -28.0625 C 13.726562 -27.039062 12.441406 -25.675781 11.484375 -23.96875 C 10.535156 -22.269531 10.0625 -20.378906 10.0625 -18.296875 C 10.0625 -16.210938 10.535156 -14.316406 11.484375 -12.609375 C 12.441406 -10.910156 13.726562 -9.550781 15.34375 -8.53125 C 16.957031 -7.507812 18.75 -7 20.71875 -7 C 22.613281 -7 24.382812 -7.5 26.03125 -8.5 C 27.6875 -9.507812 28.894531 -10.820312 29.65625 -12.4375 Z M 29.65625 -12.4375 "/></g></g></g><g fill="#ffffff" fill-opacity="1"><g transform="translate(52.866017, 51.946203)"><g><path d="M 3.234375 0 L 3.234375 -36.59375 L 11.296875 -36.59375 L 11.296875 -7.3125 L 24.4375 -7.3125 L 24.4375 0 Z M 3.234375 0 "/></g></g></g><g fill="#ffffff" fill-opacity="1"><g transform="translate(91.288456, 51.946203)"><g><path d="M 11.296875 0 L 3.234375 0 L 3.234375 -36.59375 L 11.296875 -36.59375 Z M 11.296875 0 "/></g></g></g><g fill="#ffffff" fill-opacity="1"><g transform="translate(117.925975, 51.946203)"><g><path d="M 31.96875 0 L 23.890625 0 L 11.296875 -22.8125 L 11.296875 0 L 3.234375 0 L 3.234375 -36.59375 L 11.296875 -36.59375 L 23.890625 -13.78125 L 23.890625 -36.59375 L 31.96875 -36.59375 Z M 31.96875 0 "/></g></g></g><g fill="#ffffff" fill-opacity="1"><g transform="translate(165.227473, 51.946203)"><g><path d="M 11.296875 0 L 3.234375 0 L 3.234375 -36.59375 L 11.296875 -36.59375 Z M 11.296875 0 "/></g></g></g><g fill="#ffffff" fill-opacity="1"><g transform="translate(191.864992, 51.946203)"><g><path d="M 29.65625 -12.4375 L 38.640625 -12.4375 C 37.816406 -9.914062 36.523438 -7.675781 34.765625 -5.71875 C 33.003906 -3.769531 30.921875 -2.238281 28.515625 -1.125 C 26.117188 -0.0195312 23.519531 0.53125 20.71875 0.53125 C 18.132812 0.53125 15.703125 0.046875 13.421875 -0.921875 C 11.148438 -1.890625 9.144531 -3.242188 7.40625 -4.984375 C 5.664062 -6.722656 4.3125 -8.726562 3.34375 -11 C 2.375 -13.28125 1.890625 -15.710938 1.890625 -18.296875 C 1.890625 -20.878906 2.375 -23.304688 3.34375 -25.578125 C 4.3125 -27.859375 5.664062 -29.867188 7.40625 -31.609375 C 9.144531 -33.347656 11.148438 -34.703125 13.421875 -35.671875 C 15.703125 -36.640625 18.132812 -37.125 20.71875 -37.125 C 23.519531 -37.125 26.113281 -36.566406 28.5 -35.453125 C 30.882812 -34.347656 32.953125 -32.832031 34.703125 -30.90625 C 36.460938 -28.988281 37.753906 -26.773438 38.578125 -24.265625 L 29.59375 -24.265625 C 28.84375 -25.921875 27.640625 -27.222656 25.984375 -28.171875 C 24.335938 -29.117188 22.582031 -29.59375 20.71875 -29.59375 C 18.75 -29.59375 16.957031 -29.082031 15.34375 -28.0625 C 13.726562 -27.039062 12.441406 -25.675781 11.484375 -23.96875 C 10.535156 -22.269531 10.0625 -20.378906 10.0625 -18.296875 C 10.0625 -16.210938 10.535156 -14.316406 11.484375 -12.609375 C 12.441406 -10.910156 13.726562 -9.550781 15.34375 -8.53125 C 16.957031 -7.507812 18.75 -7 20.71875 -7 C 22.613281 -7 24.382812 -7.5 26.03125 -8.5 C 27.6875 -9.507812 28.894531 -10.820312 29.65625 -12.4375 Z M 29.65625 -12.4375 "/></g></g></g><g fill="#ffffff" fill-opacity="1"><g transform="translate(241.641846, 51.946203)"><g><path d="M 23.140625 -13.984375 L 18.515625 -27.015625 L 13.890625 -13.984375 Z M 36.8125 0 L 28.140625 0 L 25.5 -7.375 L 11.5625 -7.375 L 8.9375 0 L 0.265625 0 L 15.125 -36.59375 L 21.953125 -36.59375 Z M 36.8125 0 "/></g></g></g><g fill="#ffffff" fill-opacity="1"><g transform="translate(290.82679, 51.946203)"><g><path d="M 3.234375 0 L 3.234375 -36.59375 L 11.296875 -36.59375 L 11.296875 -7.3125 L 24.4375 -7.3125 L 24.4375 0 Z M 3.234375 0 "/></g></g></g><g fill="#ffffff" fill-opacity="1"><g transform="translate(329.249228, 51.946203)"><g/></g></g><g fill="#ffffff" fill-opacity="1"><g transform="translate(354.8105, 51.946203)"><g><path d="M 11.296875 0 L 3.234375 0 L 3.234375 -36.59375 L 11.296875 -36.59375 Z M 11.296875 0 "/></g></g></g><g fill="#ffffff" fill-opacity="1"><g transform="translate(381.448019, 51.946203)"><g><path d="M 31.96875 0 L 23.890625 0 L 11.296875 -22.8125 L 11.296875 0 L 3.234375 0 L 3.234375 -36.59375 L 11.296875 -36.59375 L 23.890625 -13.78125 L 23.890625 -36.59375 L 31.96875 -36.59375 Z M 31.96875 0 "/></g></g></g><g fill="#ffffff" fill-opacity="1"><g transform="translate(428.749539, 51.946203)"><g><path d="M 18.78125 -29.28125 L 18.78125 0 L 10.703125 0 L 10.703125 -29.28125 L 0.265625 -29.28125 L 0.265625 -36.59375 L 29.21875 -36.59375 L 29.21875 -29.28125 Z M 18.78125 -29.28125 "/></g></g></g><g fill="#ffffff" fill-opacity="1"><g transform="translate(470.346889, 51.946203)"><g><path d="M 24.4375 -7.3125 L 24.4375 0 L 3.234375 0 L 3.234375 -36.59375 L 24.4375 -36.59375 L 24.4375 -29.28125 L 11.296875 -29.28125 L 11.296875 -22.015625 L 23.890625 -22.015625 L 23.890625 -14.6875 L 11.296875 -14.6875 L 11.296875 -7.3125 Z M 24.4375 -7.3125 "/></g></g></g><g fill="#ffffff" fill-opacity="1"><g transform="translate(510.11465, 51.946203)"><g><path d="M 3.234375 0 L 3.234375 -36.59375 L 11.296875 -36.59375 L 11.296875 -7.3125 L 24.4375 -7.3125 L 24.4375 0 Z M 3.234375 0 "/></g></g></g><g fill="#ffffff" fill-opacity="1"><g transform="translate(548.537088, 51.946203)"><g><path d="M 3.234375 0 L 3.234375 -36.59375 L 11.296875 -36.59375 L 11.296875 -7.3125 L 24.4375 -7.3125 L 24.4375 0 Z M 3.234375 0 "/></g></g></g><g fill="#ffffff" fill-opacity="1"><g transform="translate(586.959527, 51.946203)"><g><path d="M 11.296875 0 L 3.234375 0 L 3.234375 -36.59375 L 11.296875 -36.59375 Z M 11.296875 0 "/></g></g></g><g fill="#ffffff" fill-opacity="1"><g transform="translate(613.597023, 51.946203)"><g><path d="M 21.53125 -29.59375 C 19.59375 -29.59375 17.816406 -29.070312 16.203125 -28.03125 C 14.585938 -26.988281 13.296875 -25.609375 12.328125 -23.890625 C 11.359375 -22.171875 10.875 -20.269531 10.875 -18.1875 C 10.875 -16.144531 11.359375 -14.253906 12.328125 -12.515625 C 13.296875 -10.773438 14.585938 -9.382812 16.203125 -8.34375 C 17.816406 -7.300781 19.59375 -6.78125 21.53125 -6.78125 C 22.707031 -6.78125 23.953125 -6.945312 25.265625 -7.28125 C 26.578125 -7.625 27.796875 -8.28125 28.921875 -9.25 C 30.054688 -10.21875 30.945312 -11.617188 31.59375 -13.453125 L 22.28125 -13.453125 L 22.28125 -19.53125 L 40.3125 -19.53125 L 40.3125 -18.296875 C 40.3125 -15.710938 39.828125 -13.28125 38.859375 -11 C 37.890625 -8.726562 36.539062 -6.722656 34.8125 -4.984375 C 33.09375 -3.242188 31.101562 -1.890625 28.84375 -0.921875 C 26.582031 0.046875 24.144531 0.53125 21.53125 0.53125 C 18.945312 0.53125 16.515625 0.0390625 14.234375 -0.9375 C 11.953125 -1.925781 9.953125 -3.28125 8.234375 -5 C 6.515625 -6.726562 5.160156 -8.726562 4.171875 -11 C 3.179688 -13.28125 2.6875 -15.710938 2.6875 -18.296875 C 2.6875 -20.878906 3.179688 -23.304688 4.171875 -25.578125 C 5.160156 -27.859375 6.515625 -29.859375 8.234375 -31.578125 C 9.953125 -33.304688 11.953125 -34.660156 14.234375 -35.640625 C 16.515625 -36.628906 18.945312 -37.125 21.53125 -37.125 C 24.21875 -37.125 26.757812 -36.578125 29.15625 -35.484375 C 31.5625 -34.390625 33.660156 -32.882812 35.453125 -30.96875 C 37.253906 -29.050781 38.566406 -26.816406 39.390625 -24.265625 L 30.515625 -24.265625 C 29.617188 -26.203125 28.34375 -27.570312 26.6875 -28.375 C 25.039062 -29.1875 23.320312 -29.59375 21.53125 -29.59375 Z M 21.53125 -29.59375 "/></g></g></g><g fill="#ffffff" fill-opacity="1"><g transform="translate(667.894156, 51.946203)"><g><path d="M 24.4375 -7.3125 L 24.4375 0 L 3.234375 0 L 3.234375 -36.59375 L 24.4375 -36.59375 L 24.4375 -29.28125 L 11.296875 -29.28125 L 11.296875 -22.015625 L 23.890625 -22.015625 L 23.890625 -14.6875 L 11.296875 -14.6875 L 11.296875 -7.3125 Z M 24.4375 -7.3125 "/></g></g></g><g fill="#ffffff" fill-opacity="1"><g transform="translate(707.661917, 51.946203)"><g><path d="M 31.96875 0 L 23.890625 0 L 11.296875 -22.8125 L 11.296875 0 L 3.234375 0 L 3.234375 -36.59375 L 11.296875 -36.59375 L 23.890625 -13.78125 L 23.890625 -36.59375 L 31.96875 -36.59375 Z M 31.96875 0 "/></g></g></g><g fill="#ffffff" fill-opacity="1"><g transform="translate(754.963369, 51.946203)"><g><path d="M 29.65625 -12.4375 L 38.640625 -12.4375 C 37.816406 -9.914062 36.523438 -7.675781 34.765625 -5.71875 C 33.003906 -3.769531 30.921875 -2.238281 28.515625 -1.125 C 26.117188 -0.0195312 23.519531 0.53125 20.71875 0.53125 C 18.132812 0.53125 15.703125 0.046875 13.421875 -0.921875 C 11.148438 -1.890625 9.144531 -3.242188 7.40625 -4.984375 C 5.664062 -6.722656 4.3125 -8.726562 3.34375 -11 C 2.375 -13.28125 1.890625 -15.710938 1.890625 -18.296875 C 1.890625 -20.878906 2.375 -23.304688 3.34375 -25.578125 C 4.3125 -27.859375 5.664062 -29.867188 7.40625 -31.609375 C 9.144531 -33.347656 11.148438 -34.703125 13.421875 -35.671875 C 15.703125 -36.640625 18.132812 -37.125 20.71875 -37.125 C 23.519531 -37.125 26.113281 -36.566406 28.5 -35.453125 C 30.882812 -34.347656 32.953125 -32.832031 34.703125 -30.90625 C 36.460938 -28.988281 37.753906 -26.773438 38.578125 -24.265625 L 29.59375 -24.265625 C 28.84375 -25.921875 27.640625 -27.222656 25.984375 -28.171875 C 24.335938 -29.117188 22.582031 -29.59375 20.71875 -29.59375 C 18.75 -29.59375 16.957031 -29.082031 15.34375 -28.0625 C 13.726562 -27.039062 12.441406 -25.675781 11.484375 -23.96875 C 10.535156 -22.269531 10.0625 -20.378906 10.0625 -18.296875 C 10.0625 -16.210938 10.535156 -14.316406 11.484375 -12.609375 C 12.441406 -10.910156 13.726562 -9.550781 15.34375 -8.53125 C 16.957031 -7.507812 18.75 -7 20.71875 -7 C 22.613281 -7 24.382812 -7.5 26.03125 -8.5 C 27.6875 -9.507812 28.894531 -10.820312 29.65625 -12.4375 Z M 29.65625 -12.4375 "/></g></g></g><g fill="#ffffff" fill-opacity="1"><g transform="translate(807.054219, 51.946203)"><g><path d="M 24.4375 -7.3125 L 24.4375 0 L 3.234375 0 L 3.234375 -36.59375 L 24.4375 -36.59375 L 24.4375 -29.28125 L 11.296875 -29.28125 L 11.296875 -22.015625 L 23.890625 -22.015625 L 23.890625 -14.6875 L 11.296875 -14.6875 L 11.296875 -7.3125 Z M 24.4375 -7.3125 "/></g></g></g><g fill="#ffffff" fill-opacity="1"><g transform="translate(846.821979, 51.946203)"><g/></g></g><g fill="#ffffff" fill-opacity="1"><g transform="translate(872.383228, 51.946203)"><g><path d="M 23.890625 -14.6875 L 11.296875 -14.6875 L 11.296875 0 L 3.234375 0 L 3.234375 -36.59375 L 24.4375 -36.59375 L 24.4375 -29.28125 L 11.296875 -29.28125 L 11.296875 -22.015625 L 23.890625 -22.015625 Z M 23.890625 -14.6875 "/></g></g></g><g fill="#ffffff" fill-opacity="1"><g transform="translate(911.612841, 51.946203)"><g><path d="M 31.484375 -18.34375 C 31.484375 -20.25 30.976562 -22.015625 29.96875 -23.640625 C 28.96875 -25.273438 27.648438 -26.59375 26.015625 -27.59375 C 24.378906 -28.601562 22.613281 -29.109375 20.71875 -29.109375 C 18.851562 -29.109375 17.09375 -28.601562 15.4375 -27.59375 C 13.789062 -26.59375 12.460938 -25.273438 11.453125 -23.640625 C 10.453125 -22.015625 9.953125 -20.25 9.953125 -18.34375 C 9.953125 -16.476562 10.453125 -14.71875 11.453125 -13.0625 C 12.460938 -11.414062 13.789062 -10.082031 15.4375 -9.0625 C 17.09375 -8.039062 18.851562 -7.53125 20.71875 -7.53125 C 22.613281 -7.53125 24.378906 -8.039062 26.015625 -9.0625 C 27.648438 -10.082031 28.96875 -11.414062 29.96875 -13.0625 C 30.976562 -14.71875 31.484375 -16.476562 31.484375 -18.34375 Z M 39.546875 -18.296875 C 39.546875 -15.785156 39.039062 -13.390625 38.03125 -11.109375 C 37.03125 -8.828125 35.660156 -6.816406 33.921875 -5.078125 C 32.179688 -3.335938 30.179688 -1.96875 27.921875 -0.96875 C 25.660156 0.03125 23.257812 0.53125 20.71875 0.53125 C 18.207031 0.53125 15.8125 0.03125 13.53125 -0.96875 C 11.25 -1.96875 9.238281 -3.335938 7.5 -5.078125 C 5.757812 -6.816406 4.390625 -8.828125 3.390625 -11.109375 C 2.390625 -13.390625 1.890625 -15.785156 1.890625 -18.296875 C 1.890625 -20.835938 2.390625 -23.238281 3.390625 -25.5 C 4.390625 -27.757812 5.757812 -29.757812 7.5 -31.5 C 9.238281 -33.238281 11.25 -34.609375 13.53125 -35.609375 C 15.8125 -36.617188 18.207031 -37.125 20.71875 -37.125 C 23.257812 -37.125 25.660156 -36.617188 27.921875 -35.609375 C 30.179688 -34.609375 32.179688 -33.238281 33.921875 -31.5 C 35.660156 -29.757812 37.03125 -27.757812 38.03125 -25.5 C 39.039062 -23.238281 39.546875 -20.835938 39.546875 -18.296875 Z M 39.546875 -18.296875 "/></g></g></g><g fill="#ffffff" fill-opacity="1"><g transform="translate(965.156541, 51.946203)"><g><path d="M 11.296875 -13.078125 L 11.296875 0 L 3.234375 0 L 3.234375 -36.59375 L 16.953125 -36.59375 C 18.921875 -36.59375 20.753906 -36.097656 22.453125 -35.109375 C 24.160156 -34.128906 25.535156 -32.757812 26.578125 -31 C 27.617188 -29.238281 28.140625 -27.191406 28.140625 -24.859375 C 28.140625 -22.816406 27.765625 -21.003906 27.015625 -19.421875 C 26.265625 -17.847656 25.257812 -16.554688 24 -15.546875 C 22.738281 -14.546875 21.335938 -13.847656 19.796875 -13.453125 L 30.296875 0 L 20.078125 0 L 11.359375 -13.078125 Z M 15.609375 -30.25 L 11.296875 -30.25 L 11.296875 -19.421875 L 15.609375 -19.421875 C 16.785156 -19.421875 17.882812 -19.882812 18.90625 -20.8125 C 19.9375 -21.75 20.453125 -23.097656 20.453125 -24.859375 C 20.453125 -26.546875 19.9375 -27.863281 18.90625 -28.8125 C 17.882812 -29.769531 16.785156 -30.25 15.609375 -30.25 Z M 15.609375 -30.25 "/></g></g></g><g fill="#ffffff" fill-opacity="1"><g transform="translate(1006.91539, 51.946203)"><g/></g></g><g fill="#ffffff" fill-opacity="1"><g transform="translate(1032.476639, 51.946203)"><g><path d="M 17.4375 -5.703125 C 18.300781 -5.703125 19.234375 -5.835938 20.234375 -6.109375 C 21.234375 -6.378906 22.101562 -6.828125 22.84375 -7.453125 C 23.582031 -8.078125 23.953125 -8.929688 23.953125 -10.015625 C 23.953125 -11.015625 23.5625 -11.816406 22.78125 -12.421875 C 22.007812 -13.035156 20.992188 -13.539062 19.734375 -13.9375 C 18.484375 -14.332031 17.113281 -14.695312 15.625 -15.03125 C 14.144531 -15.375 12.648438 -15.785156 11.140625 -16.265625 C 9.628906 -16.753906 8.242188 -17.394531 6.984375 -18.1875 C 5.734375 -18.976562 4.722656 -20 3.953125 -21.25 C 3.179688 -22.507812 2.796875 -24.109375 2.796875 -26.046875 C 2.796875 -27.941406 3.191406 -29.582031 3.984375 -30.96875 C 4.773438 -32.351562 5.820312 -33.5 7.125 -34.40625 C 8.4375 -35.320312 9.90625 -36.003906 11.53125 -36.453125 C 13.164062 -36.898438 14.8125 -37.125 16.46875 -37.125 C 18.976562 -37.125 21.328125 -36.726562 23.515625 -35.9375 C 25.703125 -35.15625 27.484375 -33.910156 28.859375 -32.203125 C 30.242188 -30.503906 30.972656 -28.253906 31.046875 -25.453125 L 23.25 -25.453125 C 23.03125 -27.359375 22.363281 -28.675781 21.25 -29.40625 C 20.144531 -30.144531 18.585938 -30.515625 16.578125 -30.515625 C 15.816406 -30.515625 15.015625 -30.390625 14.171875 -30.140625 C 13.335938 -29.890625 12.625 -29.484375 12.03125 -28.921875 C 11.4375 -28.367188 11.140625 -27.625 11.140625 -26.6875 C 11.140625 -25.757812 11.523438 -25.023438 12.296875 -24.484375 C 13.066406 -23.941406 14.078125 -23.488281 15.328125 -23.125 C 16.585938 -22.769531 17.96875 -22.429688 19.46875 -22.109375 C 20.976562 -21.785156 22.476562 -21.390625 23.96875 -20.921875 C 25.457031 -20.460938 26.828125 -19.828125 28.078125 -19.015625 C 29.335938 -18.210938 30.351562 -17.164062 31.125 -15.875 C 31.894531 -14.582031 32.28125 -12.929688 32.28125 -10.921875 C 32.28125 -8.765625 31.847656 -6.929688 30.984375 -5.421875 C 30.128906 -3.921875 28.972656 -2.710938 27.515625 -1.796875 C 26.066406 -0.890625 24.4375 -0.222656 22.625 0.203125 C 20.8125 0.640625 18.972656 0.859375 17.109375 0.859375 C 14.421875 0.859375 11.898438 0.398438 9.546875 -0.515625 C 7.203125 -1.429688 5.300781 -2.835938 3.84375 -4.734375 C 2.394531 -6.640625 1.648438 -9.078125 1.609375 -12.046875 L 9.796875 -12.046875 C 9.898438 -9.859375 10.703125 -8.253906 12.203125 -7.234375 C 13.710938 -6.210938 15.457031 -5.703125 17.4375 -5.703125 Z M 17.4375 -5.703125 "/></g></g></g><g fill="#ffffff" fill-opacity="1"><g transform="translate(1078.486648, 51.946203)"><g><path d="M 23.140625 -13.984375 L 18.515625 -27.015625 L 13.890625 -13.984375 Z M 36.8125 0 L 28.140625 0 L 25.5 -7.375 L 11.5625 -7.375 L 8.9375 0 L 0.265625 0 L 15.125 -36.59375 L 21.953125 -36.59375 Z M 36.8125 0 "/></g></g></g><g fill="#ffffff" fill-opacity="1"><g transform="translate(1127.671613, 51.946203)"><g><path d="M 23.890625 -14.6875 L 11.296875 -14.6875 L 11.296875 0 L 3.234375 0 L 3.234375 -36.59375 L 24.4375 -36.59375 L 24.4375 -29.28125 L 11.296875 -29.28125 L 11.296875 -22.015625 L 23.890625 -22.015625 Z M 23.890625 -14.6875 "/></g></g></g><g fill="#ffffff" fill-opacity="1"><g transform="translate(1166.901227, 51.946203)"><g><path d="M 24.4375 -7.3125 L 24.4375 0 L 3.234375 0 L 3.234375 -36.59375 L 24.4375 -36.59375 L 24.4375 -29.28125 L 11.296875 -29.28125 L 11.296875 -22.015625 L 23.890625 -22.015625 L 23.890625 -14.6875 L 11.296875 -14.6875 L 11.296875 -7.3125 Z M 24.4375 -7.3125 "/></g></g></g><g fill="#ffffff" fill-opacity="1"><g transform="translate(1206.668987, 51.946203)"><g><path d="M 11.296875 -13.078125 L 11.296875 0 L 3.234375 0 L 3.234375 -36.59375 L 16.953125 -36.59375 C 18.921875 -36.59375 20.753906 -36.097656 22.453125 -35.109375 C 24.160156 -34.128906 25.535156 -32.757812 26.578125 -31 C 27.617188 -29.238281 28.140625 -27.191406 28.140625 -24.859375 C 28.140625 -22.816406 27.765625 -21.003906 27.015625 -19.421875 C 26.265625 -17.847656 25.257812 -16.554688 24 -15.546875 C 22.738281 -14.546875 21.335938 -13.847656 19.796875 -13.453125 L 30.296875 0 L 20.078125 0 L 11.359375 -13.078125 Z M 15.609375 -30.25 L 11.296875 -30.25 L 11.296875 -19.421875 L 15.609375 -19.421875 C 16.785156 -19.421875 17.882812 -19.882812 18.90625 -20.8125 C 19.9375 -21.75 20.453125 -23.097656 20.453125 -24.859375 C 20.453125 -26.546875 19.9375 -27.863281 18.90625 -28.8125 C 17.882812 -29.769531 16.785156 -30.25 15.609375 -30.25 Z M 15.609375 -30.25 "/></g></g></g><g fill="#ffffff" fill-opacity="1"><g transform="translate(1248.427745, 51.946203)"><g/></g></g><g fill="#ffffff" fill-opacity="1"><g transform="translate(1273.989085, 51.946203)"><g><path d="M 23.140625 -13.984375 L 18.515625 -27.015625 L 13.890625 -13.984375 Z M 36.8125 0 L 28.140625 0 L 25.5 -7.375 L 11.5625 -7.375 L 8.9375 0 L 0.265625 0 L 15.125 -36.59375 L 21.953125 -36.59375 Z M 36.8125 0 "/></g></g></g><g fill="#ffffff" fill-opacity="1"><g transform="translate(1323.173959, 51.946203)"><g><path d="M 11.296875 0 L 3.234375 0 L 3.234375 -36.59375 L 11.296875 -36.59375 Z M 11.296875 0 "/></g></g></g></g></g></g></g></g></svg>