<svg xmlns="http://www.w3.org/2000/svg" xmlns:xlink="http://www.w3.org/1999/xlink" width="2000" zoomAndPan="magnify" viewBox="0 0 1500 1499.999933" height="2000" preserveAspectRatio="xMidYMid meet" version="1.0"><defs><clipPath id="d722e2140f"><path d="M 0 0.777344 L 1426.59375 0.777344 L 1426.59375 143.433594 L 0 143.433594 Z M 0 0.777344 " clip-rule="nonzero"/></clipPath><clipPath id="ea41e1dc15"><path d="M 0 23 L 1426.59375 23 L 1426.59375 122 L 0 122 Z M 0 23 " clip-rule="nonzero"/></clipPath><clipPath id="871bd75359"><path d="M 0 210.105469 L 1424.089844 210.105469 L 1424.089844 352.765625 L 0 352.765625 Z M 0 210.105469 " clip-rule="nonzero"/></clipPath><clipPath id="689d1764f1"><path d="M 0 232 L 1424.089844 232 L 1424.089844 331 L 0 331 Z M 0 232 " clip-rule="nonzero"/></clipPath><clipPath id="faf334af10"><path d="M 2.65625 106.070312 L 1426.746094 106.070312 L 1426.746094 248.730469 L 2.65625 248.730469 Z M 2.65625 106.070312 " clip-rule="nonzero"/></clipPath><clipPath id="190726f133"><path d="M 2.65625 128 L 1426.746094 128 L 1426.746094 227 L 2.65625 227 Z M 2.65625 128 " clip-rule="nonzero"/></clipPath><clipPath id="a2410f1e13"><rect x="0" width="1500" y="0" height="354"/></clipPath><clipPath id="b25c333af9"><path d="M 0 0.6875 L 1426.59375 0.6875 L 1426.59375 143.347656 L 0 143.347656 Z M 0 0.6875 " clip-rule="nonzero"/></clipPath><clipPath id="1fd56b64ce"><path d="M 0 23 L 1426.59375 23 L 1426.59375 121 L 0 121 Z M 0 23 " clip-rule="nonzero"/></clipPath><clipPath id="eca35ea776"><path d="M 0 210.019531 L 1424.089844 210.019531 L 1424.089844 352.675781 L 0 352.675781 Z M 0 210.019531 " clip-rule="nonzero"/></clipPath><clipPath id="5375dc28e7"><path d="M 0 232 L 1424.089844 232 L 1424.089844 331 L 0 331 Z M 0 232 " clip-rule="nonzero"/></clipPath><clipPath id="5dec7598cf"><path d="M 2.65625 106 L 1426.746094 106 L 1426.746094 248.640625 L 2.65625 248.640625 Z M 2.65625 106 " clip-rule="nonzero"/></clipPath><clipPath id="215d4577d5"><path d="M 2.65625 128 L 1426.746094 128 L 1426.746094 227 L 2.65625 227 Z M 2.65625 128 " clip-rule="nonzero"/></clipPath><clipPath id="1dfb792166"><rect x="0" width="1500" y="0" height="354"/></clipPath><clipPath id="d44072bfd3"><path d="M 0 0.800781 L 1426.59375 0.800781 L 1426.59375 143.449219 L 0 143.449219 Z M 0 0.800781 " clip-rule="nonzero"/></clipPath><clipPath id="b4d4298e1f"><path d="M 0 23 L 1426.59375 23 L 1426.59375 122 L 0 122 Z M 0 23 " clip-rule="nonzero"/></clipPath><clipPath id="10e644b45f"><path d="M 0 210.121094 L 1424.089844 210.121094 L 1424.089844 352.78125 L 0 352.78125 Z M 0 210.121094 " clip-rule="nonzero"/></clipPath><clipPath id="5420078e03"><path d="M 0 232 L 1424.089844 232 L 1424.089844 331 L 0 331 Z M 0 232 " clip-rule="nonzero"/></clipPath><clipPath id="4cdee07ec7"><path d="M 2.65625 106.082031 L 1426.746094 106.082031 L 1426.746094 248.742188 L 2.65625 248.742188 Z M 2.65625 106.082031 " clip-rule="nonzero"/></clipPath><clipPath id="a6e6a64350"><path d="M 2.65625 128 L 1426.746094 128 L 1426.746094 227 L 2.65625 227 Z M 2.65625 128 " clip-rule="nonzero"/></clipPath><clipPath id="693c0aed39"><rect x="0" width="1500" y="0" height="354"/></clipPath><clipPath id="ad0e2eb20f"><path d="M 0 0.359375 L 1426.59375 0.359375 L 1426.59375 142.945312 L 0 142.945312 Z M 0 0.359375 " clip-rule="nonzero"/></clipPath><clipPath id="9f654ba548"><path d="M 0 23 L 1426.59375 23 L 1426.59375 121 L 0 121 Z M 0 23 " clip-rule="nonzero"/></clipPath><clipPath id="97f0932799"><path d="M 0 209.617188 L 1424.089844 209.617188 L 1424.089844 303 L 0 303 Z M 0 209.617188 " clip-rule="nonzero"/></clipPath><clipPath id="3328e57188"><path d="M 0 232 L 1424.089844 232 L 1424.089844 303 L 0 303 Z M 0 232 " clip-rule="nonzero"/></clipPath><clipPath id="870b7e2049"><path d="M 2.65625 105.582031 L 1426.746094 105.582031 L 1426.746094 248.242188 L 2.65625 248.242188 Z M 2.65625 105.582031 " clip-rule="nonzero"/></clipPath><clipPath id="ff01fbf69b"><path d="M 2.65625 128 L 1426.746094 128 L 1426.746094 226 L 2.65625 226 Z M 2.65625 128 " clip-rule="nonzero"/></clipPath><clipPath id="c9dc35a3f5"><rect x="0" width="1500" y="0" height="303"/></clipPath><clipPath id="7c7ba19772"><path d="M 0 0 L 1426.59375 0 L 1426.59375 92.988281 L 0 92.988281 Z M 0 0 " clip-rule="nonzero"/></clipPath><clipPath id="0445a115b9"><path d="M 0 0 L 1426.59375 0 L 1426.59375 71 L 0 71 Z M 0 0 " clip-rule="nonzero"/></clipPath><clipPath id="906080fbdb"><path d="M 0 159.660156 L 1424.089844 159.660156 L 1424.089844 302.320312 L 0 302.320312 Z M 0 159.660156 " clip-rule="nonzero"/></clipPath><clipPath id="a3fa20532b"><path d="M 0 182 L 1424.089844 182 L 1424.089844 280 L 0 280 Z M 0 182 " clip-rule="nonzero"/></clipPath><clipPath id="f8d52b770c"><path d="M 2.65625 55.621094 L 1426.746094 55.621094 L 1426.746094 198.28125 L 2.65625 198.28125 Z M 2.65625 55.621094 " clip-rule="nonzero"/></clipPath><clipPath id="75ed132157"><path d="M 2.65625 78 L 1426.746094 78 L 1426.746094 176 L 2.65625 176 Z M 2.65625 78 " clip-rule="nonzero"/></clipPath><clipPath id="2d0bfe0ef7"><rect x="0" width="1500" y="0" height="303"/></clipPath></defs><g transform="matrix(1, 0, 0, 1, 0, 564)"><g clip-path="url(#a2410f1e13)"><g clip-path="url(#d722e2140f)"><path fill="#173664" d="M 0 143.742188 C 92.699219 143.742188 141.664062 123.773438 184.839844 106.175781 C 225.40625 89.65625 263.738281 74.042969 342.082031 74.042969 C 420.421875 74.042969 458.757812 89.65625 499.320312 106.175781 C 542.535156 123.773438 591.496094 143.742188 684.164062 143.742188 C 776.863281 143.742188 825.824219 123.773438 869.003906 106.175781 C 909.566406 89.65625 947.867188 74.042969 1026.242188 74.042969 C 1104.621094 74.042969 1142.917969 89.65625 1183.484375 106.175781 C 1226.695312 123.773438 1275.625 143.742188 1368.324219 143.742188 C 1461.023438 143.742188 1509.988281 123.773438 1553.164062 106.175781 C 1593.730469 89.65625 1632.03125 74.042969 1710.40625 74.042969 L 1710.40625 0.859375 C 1617.707031 0.859375 1568.742188 20.828125 1525.566406 38.425781 C 1485 54.945312 1446.699219 70.558594 1368.324219 70.558594 C 1289.949219 70.558594 1251.648438 54.945312 1211.085938 38.425781 C 1167.90625 20.828125 1118.941406 0.859375 1026.242188 0.859375 C 933.542969 0.859375 884.582031 20.792969 841.402344 38.425781 C 800.839844 54.945312 762.539062 70.558594 684.164062 70.558594 C 605.820312 70.558594 567.488281 54.945312 526.921875 38.425781 C 483.742188 20.828125 434.78125 0.859375 342.082031 0.859375 C 249.382812 0.859375 200.417969 20.792969 157.242188 38.425781 C 116.675781 54.945312 78.339844 70.558594 0 70.558594 Z M 0 143.742188 " fill-opacity="1" fill-rule="nonzero"/></g><g clip-path="url(#ea41e1dc15)"><path fill="#ffffff" d="M 0 121.089844 C 88.273438 121.089844 133.019531 102.863281 176.304688 85.195312 C 218.992188 67.804688 259.277344 51.390625 342.082031 51.390625 C 424.882812 51.390625 465.203125 67.804688 507.859375 85.195312 C 551.140625 102.828125 595.925781 121.089844 684.164062 121.089844 C 772.402344 121.089844 817.183594 102.863281 860.464844 85.195312 C 903.15625 67.804688 943.441406 51.390625 1026.242188 51.390625 C 1109.046875 51.390625 1149.332031 67.804688 1192.023438 85.195312 C 1235.304688 102.828125 1280.050781 121.089844 1368.324219 121.089844 C 1456.5625 121.089844 1501.34375 102.863281 1544.628906 85.195312 C 1587.316406 67.804688 1627.605469 51.390625 1710.40625 51.390625 L 1710.40625 23.511719 C 1622.167969 23.511719 1577.386719 41.738281 1534.101562 59.40625 C 1491.414062 76.796875 1451.125 93.210938 1368.324219 93.210938 C 1285.523438 93.210938 1245.238281 76.796875 1202.546875 59.40625 C 1159.261719 41.773438 1114.480469 23.511719 1026.242188 23.511719 C 938.003906 23.511719 893.222656 41.738281 849.941406 59.40625 C 807.25 76.796875 766.964844 93.210938 684.164062 93.210938 C 601.359375 93.210938 561.074219 76.796875 518.382812 59.40625 C 475.101562 41.773438 430.320312 23.511719 342.082031 23.511719 C 253.84375 23.511719 209.0625 41.738281 165.777344 59.40625 C 123.121094 76.796875 82.800781 93.210938 0 93.210938 Z M 0 121.089844 " fill-opacity="1" fill-rule="nonzero"/></g><g clip-path="url(#871bd75359)"><path fill="#173664" d="M 0 353.074219 C 92.699219 353.074219 141.664062 333.105469 184.839844 315.507812 C 225.40625 298.988281 263.738281 283.375 342.082031 283.375 C 420.421875 283.375 458.757812 298.988281 499.320312 315.507812 C 542.535156 333.105469 591.496094 353.074219 684.164062 353.074219 C 776.863281 353.074219 825.824219 333.105469 869.003906 315.507812 C 909.566406 298.988281 947.867188 283.375 1026.242188 283.375 C 1104.621094 283.375 1142.917969 298.988281 1183.484375 315.507812 C 1226.695312 333.105469 1275.625 353.074219 1368.324219 353.074219 C 1461.023438 353.074219 1509.988281 333.105469 1553.164062 315.507812 C 1593.730469 298.988281 1632.03125 283.375 1710.40625 283.375 L 1710.40625 210.191406 C 1617.707031 210.191406 1568.742188 230.160156 1525.566406 247.757812 C 1485 264.277344 1446.699219 279.890625 1368.324219 279.890625 C 1289.949219 279.890625 1251.648438 264.277344 1211.085938 247.757812 C 1167.90625 230.160156 1118.941406 210.191406 1026.242188 210.191406 C 933.542969 210.191406 884.582031 230.125 841.402344 247.757812 C 800.839844 264.277344 762.539062 279.890625 684.164062 279.890625 C 605.820312 279.890625 567.488281 264.277344 526.921875 247.757812 C 483.742188 230.160156 434.78125 210.191406 342.082031 210.191406 C 249.382812 210.191406 200.417969 230.125 157.242188 247.757812 C 116.675781 264.277344 78.339844 279.890625 0 279.890625 Z M 0 353.074219 " fill-opacity="1" fill-rule="nonzero"/></g><g clip-path="url(#689d1764f1)"><path fill="#ffffff" d="M 0 330.421875 C 88.273438 330.421875 133.019531 312.195312 176.304688 294.527344 C 218.992188 277.136719 259.277344 260.722656 342.082031 260.722656 C 424.882812 260.722656 465.203125 277.136719 507.859375 294.527344 C 551.140625 312.160156 595.925781 330.421875 684.164062 330.421875 C 772.402344 330.421875 817.183594 312.195312 860.464844 294.527344 C 903.15625 277.136719 943.441406 260.722656 1026.242188 260.722656 C 1109.046875 260.722656 1149.332031 277.136719 1192.023438 294.527344 C 1235.304688 312.160156 1280.050781 330.421875 1368.324219 330.421875 C 1456.5625 330.421875 1501.34375 312.195312 1544.628906 294.527344 C 1587.316406 277.136719 1627.605469 260.722656 1710.40625 260.722656 L 1710.40625 232.84375 C 1622.167969 232.84375 1577.386719 251.070312 1534.101562 268.738281 C 1491.414062 286.128906 1451.125 302.542969 1368.324219 302.542969 C 1285.523438 302.542969 1245.238281 286.128906 1202.546875 268.738281 C 1159.261719 251.105469 1114.480469 232.84375 1026.242188 232.84375 C 938.003906 232.84375 893.222656 251.070312 849.941406 268.738281 C 807.25 286.128906 766.964844 302.542969 684.164062 302.542969 C 601.359375 302.542969 561.074219 286.128906 518.382812 268.738281 C 475.101562 251.105469 430.320312 232.84375 342.082031 232.84375 C 253.84375 232.84375 209.0625 251.070312 165.777344 268.738281 C 123.121094 286.128906 82.800781 302.542969 0 302.542969 Z M 0 330.421875 " fill-opacity="1" fill-rule="nonzero"/></g><g clip-path="url(#faf334af10)"><path fill="#173664" d="M 2.65625 249.035156 C 95.355469 249.035156 144.320312 229.066406 187.5 211.46875 C 228.0625 194.949219 266.398438 179.335938 344.738281 179.335938 C 423.078125 179.335938 461.414062 194.949219 501.980469 211.46875 C 545.191406 229.066406 594.15625 249.035156 686.820312 249.035156 C 779.519531 249.035156 828.480469 229.066406 871.660156 211.46875 C 912.226562 194.949219 950.523438 179.335938 1028.902344 179.335938 C 1107.277344 179.335938 1145.578125 194.949219 1186.140625 211.46875 C 1229.355469 229.066406 1278.28125 249.035156 1370.980469 249.035156 C 1463.679688 249.035156 1512.644531 229.066406 1555.824219 211.46875 C 1596.386719 194.949219 1634.6875 179.335938 1713.0625 179.335938 L 1713.0625 106.152344 C 1620.363281 106.152344 1571.402344 126.121094 1528.222656 143.722656 C 1487.65625 160.238281 1449.359375 175.851562 1370.980469 175.851562 C 1292.605469 175.851562 1254.304688 160.238281 1213.742188 143.722656 C 1170.5625 126.121094 1121.601562 106.152344 1028.902344 106.152344 C 936.203125 106.152344 887.238281 126.085938 844.058594 143.722656 C 803.496094 160.238281 765.195312 175.851562 686.820312 175.851562 C 608.476562 175.851562 570.144531 160.238281 529.578125 143.722656 C 486.402344 126.121094 437.4375 106.152344 344.738281 106.152344 C 252.039062 106.152344 203.074219 126.085938 159.898438 143.722656 C 119.332031 160.238281 81 175.851562 2.65625 175.851562 Z M 2.65625 249.035156 " fill-opacity="1" fill-rule="nonzero"/></g><g clip-path="url(#190726f133)"><path fill="#b28735" d="M 2.65625 226.382812 C 90.929688 226.382812 135.675781 208.15625 178.960938 190.488281 C 221.652344 173.097656 261.9375 156.683594 344.738281 156.683594 C 427.539062 156.683594 467.859375 173.097656 510.515625 190.488281 C 553.800781 208.121094 598.582031 226.382812 686.820312 226.382812 C 775.058594 226.382812 819.839844 208.15625 863.121094 190.488281 C 905.8125 173.097656 946.097656 156.683594 1028.902344 156.683594 C 1111.703125 156.683594 1151.988281 173.097656 1194.679688 190.488281 C 1237.960938 208.121094 1282.707031 226.382812 1370.980469 226.382812 C 1459.21875 226.382812 1504 208.15625 1547.285156 190.488281 C 1589.976562 173.097656 1630.261719 156.683594 1713.0625 156.683594 L 1713.0625 128.804688 C 1624.824219 128.804688 1580.042969 147.03125 1536.761719 164.699219 C 1494.070312 182.089844 1453.785156 198.503906 1370.980469 198.503906 C 1288.179688 198.503906 1247.894531 182.089844 1205.203125 164.699219 C 1161.921875 147.066406 1117.140625 128.804688 1028.902344 128.804688 C 940.664062 128.804688 895.878906 147.03125 852.597656 164.699219 C 809.90625 182.089844 769.621094 198.503906 686.820312 198.503906 C 604.019531 198.503906 563.730469 182.089844 521.042969 164.699219 C 477.757812 147.066406 432.976562 128.804688 344.738281 128.804688 C 256.5 128.804688 211.71875 147.03125 168.4375 164.699219 C 125.78125 182.089844 85.460938 198.503906 2.65625 198.503906 Z M 2.65625 226.382812 " fill-opacity="1" fill-rule="nonzero"/></g></g></g><g transform="matrix(1, 0, 0, 1, 0, 262)"><g clip-path="url(#1dfb792166)"><g clip-path="url(#b25c333af9)"><path fill="#173664" d="M 0 143.652344 C 92.699219 143.652344 141.664062 123.683594 184.839844 106.085938 C 225.40625 89.566406 263.738281 73.953125 342.082031 73.953125 C 420.421875 73.953125 458.757812 89.566406 499.320312 106.085938 C 542.535156 123.683594 591.496094 143.652344 684.164062 143.652344 C 776.863281 143.652344 825.824219 123.683594 869.003906 106.085938 C 909.566406 89.566406 947.867188 73.953125 1026.242188 73.953125 C 1104.621094 73.953125 1142.917969 89.566406 1183.484375 106.085938 C 1226.695312 123.683594 1275.625 143.652344 1368.324219 143.652344 C 1461.023438 143.652344 1509.988281 123.683594 1553.164062 106.085938 C 1593.730469 89.566406 1632.03125 73.953125 1710.40625 73.953125 L 1710.40625 0.769531 C 1617.707031 0.769531 1568.742188 20.738281 1525.566406 38.339844 C 1485 54.855469 1446.699219 70.46875 1368.324219 70.46875 C 1289.949219 70.46875 1251.648438 54.855469 1211.085938 38.339844 C 1167.90625 20.738281 1118.941406 0.769531 1026.242188 0.769531 C 933.542969 0.769531 884.582031 20.703125 841.402344 38.339844 C 800.839844 54.855469 762.539062 70.46875 684.164062 70.46875 C 605.820312 70.46875 567.488281 54.855469 526.921875 38.339844 C 483.742188 20.738281 434.78125 0.769531 342.082031 0.769531 C 249.382812 0.769531 200.417969 20.703125 157.242188 38.339844 C 116.675781 54.855469 78.339844 70.46875 0 70.46875 Z M 0 143.652344 " fill-opacity="1" fill-rule="nonzero"/></g><g clip-path="url(#1fd56b64ce)"><path fill="#ffffff" d="M 0 121 C 88.273438 121 133.019531 102.773438 176.304688 85.105469 C 218.992188 67.714844 259.277344 51.300781 342.082031 51.300781 C 424.882812 51.300781 465.203125 67.714844 507.859375 85.105469 C 551.140625 102.738281 595.925781 121 684.164062 121 C 772.402344 121 817.183594 102.773438 860.464844 85.105469 C 903.15625 67.714844 943.441406 51.300781 1026.242188 51.300781 C 1109.046875 51.300781 1149.332031 67.714844 1192.023438 85.105469 C 1235.304688 102.738281 1280.050781 121 1368.324219 121 C 1456.5625 121 1501.34375 102.773438 1544.628906 85.105469 C 1587.316406 67.714844 1627.605469 51.300781 1710.40625 51.300781 L 1710.40625 23.421875 C 1622.167969 23.421875 1577.386719 41.648438 1534.101562 59.316406 C 1491.414062 76.707031 1451.125 93.121094 1368.324219 93.121094 C 1285.523438 93.121094 1245.238281 76.707031 1202.546875 59.316406 C 1159.261719 41.683594 1114.480469 23.421875 1026.242188 23.421875 C 938.003906 23.421875 893.222656 41.648438 849.941406 59.316406 C 807.25 76.707031 766.964844 93.121094 684.164062 93.121094 C 601.359375 93.121094 561.074219 76.707031 518.382812 59.316406 C 475.101562 41.683594 430.320312 23.421875 342.082031 23.421875 C 253.84375 23.421875 209.0625 41.648438 165.777344 59.316406 C 123.121094 76.707031 82.800781 93.121094 0 93.121094 Z M 0 121 " fill-opacity="1" fill-rule="nonzero"/></g><g clip-path="url(#eca35ea776)"><path fill="#173664" d="M 0 352.984375 C 92.699219 352.984375 141.664062 333.015625 184.839844 315.417969 C 225.40625 298.898438 263.738281 283.285156 342.082031 283.285156 C 420.421875 283.285156 458.757812 298.898438 499.320312 315.417969 C 542.535156 333.015625 591.496094 352.984375 684.164062 352.984375 C 776.863281 352.984375 825.824219 333.015625 869.003906 315.417969 C 909.566406 298.898438 947.867188 283.285156 1026.242188 283.285156 C 1104.621094 283.285156 1142.917969 298.898438 1183.484375 315.417969 C 1226.695312 333.015625 1275.625 352.984375 1368.324219 352.984375 C 1461.023438 352.984375 1509.988281 333.015625 1553.164062 315.417969 C 1593.730469 298.898438 1632.03125 283.285156 1710.40625 283.285156 L 1710.40625 210.101562 C 1617.707031 210.101562 1568.742188 230.070312 1525.566406 247.667969 C 1485 264.1875 1446.699219 279.800781 1368.324219 279.800781 C 1289.949219 279.800781 1251.648438 264.1875 1211.085938 247.667969 C 1167.90625 230.070312 1118.941406 210.101562 1026.242188 210.101562 C 933.542969 210.101562 884.582031 230.035156 841.402344 247.667969 C 800.839844 264.1875 762.539062 279.800781 684.164062 279.800781 C 605.820312 279.800781 567.488281 264.1875 526.921875 247.667969 C 483.742188 230.070312 434.78125 210.101562 342.082031 210.101562 C 249.382812 210.101562 200.417969 230.035156 157.242188 247.667969 C 116.675781 264.1875 78.339844 279.800781 0 279.800781 Z M 0 352.984375 " fill-opacity="1" fill-rule="nonzero"/></g><g clip-path="url(#5375dc28e7)"><path fill="#ffffff" d="M 0 330.332031 C 88.273438 330.332031 133.019531 312.105469 176.304688 294.4375 C 218.992188 277.046875 259.277344 260.632812 342.082031 260.632812 C 424.882812 260.632812 465.203125 277.046875 507.859375 294.4375 C 551.140625 312.070312 595.925781 330.332031 684.164062 330.332031 C 772.402344 330.332031 817.183594 312.105469 860.464844 294.4375 C 903.15625 277.046875 943.441406 260.632812 1026.242188 260.632812 C 1109.046875 260.632812 1149.332031 277.046875 1192.023438 294.4375 C 1235.304688 312.070312 1280.050781 330.332031 1368.324219 330.332031 C 1456.5625 330.332031 1501.34375 312.105469 1544.628906 294.4375 C 1587.316406 277.046875 1627.605469 260.632812 1710.40625 260.632812 L 1710.40625 232.753906 C 1622.167969 232.753906 1577.386719 250.980469 1534.101562 268.648438 C 1491.414062 286.039062 1451.125 302.453125 1368.324219 302.453125 C 1285.523438 302.453125 1245.238281 286.039062 1202.546875 268.648438 C 1159.261719 251.015625 1114.480469 232.753906 1026.242188 232.753906 C 938.003906 232.753906 893.222656 250.980469 849.941406 268.648438 C 807.25 286.039062 766.964844 302.453125 684.164062 302.453125 C 601.359375 302.453125 561.074219 286.039062 518.382812 268.648438 C 475.101562 251.015625 430.320312 232.753906 342.082031 232.753906 C 253.84375 232.753906 209.0625 250.980469 165.777344 268.648438 C 123.121094 286.039062 82.800781 302.453125 0 302.453125 Z M 0 330.332031 " fill-opacity="1" fill-rule="nonzero"/></g><g clip-path="url(#5dec7598cf)"><path fill="#173664" d="M 2.65625 248.945312 C 95.355469 248.945312 144.320312 228.976562 187.5 211.378906 C 228.0625 194.859375 266.398438 179.25 344.738281 179.25 C 423.078125 179.25 461.414062 194.859375 501.980469 211.378906 C 545.191406 228.976562 594.15625 248.945312 686.820312 248.945312 C 779.519531 248.945312 828.480469 228.976562 871.660156 211.378906 C 912.226562 194.859375 950.523438 179.25 1028.902344 179.25 C 1107.277344 179.25 1145.578125 194.859375 1186.140625 211.378906 C 1229.355469 228.976562 1278.28125 248.945312 1370.980469 248.945312 C 1463.679688 248.945312 1512.644531 228.976562 1555.824219 211.378906 C 1596.386719 194.859375 1634.6875 179.25 1713.0625 179.25 L 1713.0625 106.066406 C 1620.363281 106.066406 1571.402344 126.035156 1528.222656 143.632812 C 1487.65625 160.152344 1449.359375 175.761719 1370.980469 175.761719 C 1292.605469 175.761719 1254.304688 160.152344 1213.742188 143.632812 C 1170.5625 126.035156 1121.601562 106.066406 1028.902344 106.066406 C 936.203125 106.066406 887.238281 126 844.058594 143.632812 C 803.496094 160.152344 765.195312 175.761719 686.820312 175.761719 C 608.476562 175.761719 570.144531 160.152344 529.578125 143.632812 C 486.402344 126.035156 437.4375 106.066406 344.738281 106.066406 C 252.039062 106.066406 203.074219 126 159.898438 143.632812 C 119.332031 160.152344 81 175.761719 2.65625 175.761719 Z M 2.65625 248.945312 " fill-opacity="1" fill-rule="nonzero"/></g><g clip-path="url(#215d4577d5)"><path fill="#b28735" d="M 2.65625 226.296875 C 90.929688 226.296875 135.675781 208.070312 178.960938 190.398438 C 221.652344 173.011719 261.9375 156.597656 344.738281 156.597656 C 427.539062 156.597656 467.859375 173.011719 510.515625 190.398438 C 553.800781 208.035156 598.582031 226.296875 686.820312 226.296875 C 775.058594 226.296875 819.839844 208.070312 863.121094 190.398438 C 905.8125 173.011719 946.097656 156.597656 1028.902344 156.597656 C 1111.703125 156.597656 1151.988281 173.011719 1194.679688 190.398438 C 1237.960938 208.035156 1282.707031 226.296875 1370.980469 226.296875 C 1459.21875 226.296875 1504 208.070312 1547.285156 190.398438 C 1589.976562 173.011719 1630.261719 156.597656 1713.0625 156.597656 L 1713.0625 128.714844 C 1624.824219 128.714844 1580.042969 146.941406 1536.761719 164.613281 C 1494.070312 182 1453.785156 198.414062 1370.980469 198.414062 C 1288.179688 198.414062 1247.894531 182 1205.203125 164.613281 C 1161.921875 146.976562 1117.140625 128.714844 1028.902344 128.714844 C 940.664062 128.714844 895.878906 146.941406 852.597656 164.613281 C 809.90625 182 769.621094 198.414062 686.820312 198.414062 C 604.019531 198.414062 563.730469 182 521.042969 164.613281 C 477.757812 146.976562 432.976562 128.714844 344.738281 128.714844 C 256.5 128.714844 211.71875 146.941406 168.4375 164.613281 C 125.78125 182 85.460938 198.414062 2.65625 198.414062 Z M 2.65625 226.296875 " fill-opacity="1" fill-rule="nonzero"/></g></g></g><g transform="matrix(1, 0, 0, 1, 0, 880)"><g clip-path="url(#693c0aed39)"><g clip-path="url(#d44072bfd3)"><path fill="#173664" d="M 0 143.753906 C 92.699219 143.753906 141.664062 123.785156 184.839844 106.1875 C 225.40625 89.667969 263.738281 74.054688 342.082031 74.054688 C 420.421875 74.054688 458.757812 89.667969 499.320312 106.1875 C 542.535156 123.785156 591.496094 143.753906 684.164062 143.753906 C 776.863281 143.753906 825.824219 123.785156 869.003906 106.1875 C 909.566406 89.667969 947.867188 74.054688 1026.242188 74.054688 C 1104.621094 74.054688 1142.917969 89.667969 1183.484375 106.1875 C 1226.695312 123.785156 1275.625 143.753906 1368.324219 143.753906 C 1461.023438 143.753906 1509.988281 123.785156 1553.164062 106.1875 C 1593.730469 89.667969 1632.03125 74.054688 1710.40625 74.054688 L 1710.40625 0.871094 C 1617.707031 0.871094 1568.742188 20.839844 1525.566406 38.441406 C 1485 54.960938 1446.699219 70.570312 1368.324219 70.570312 C 1289.949219 70.570312 1251.648438 54.960938 1211.085938 38.441406 C 1167.90625 20.839844 1118.941406 0.871094 1026.242188 0.871094 C 933.542969 0.871094 884.582031 20.808594 841.402344 38.441406 C 800.839844 54.960938 762.539062 70.570312 684.164062 70.570312 C 605.820312 70.570312 567.488281 54.960938 526.921875 38.441406 C 483.742188 20.839844 434.78125 0.871094 342.082031 0.871094 C 249.382812 0.871094 200.417969 20.808594 157.242188 38.441406 C 116.675781 54.960938 78.339844 70.570312 0 70.570312 Z M 0 143.753906 " fill-opacity="1" fill-rule="nonzero"/></g><g clip-path="url(#b4d4298e1f)"><path fill="#ffffff" d="M 0 121.101562 C 88.273438 121.101562 133.019531 102.875 176.304688 85.207031 C 218.992188 67.820312 259.277344 51.40625 342.082031 51.40625 C 424.882812 51.40625 465.203125 67.820312 507.859375 85.207031 C 551.140625 102.84375 595.925781 121.101562 684.164062 121.101562 C 772.402344 121.101562 817.183594 102.875 860.464844 85.207031 C 903.15625 67.820312 943.441406 51.40625 1026.242188 51.40625 C 1109.046875 51.40625 1149.332031 67.820312 1192.023438 85.207031 C 1235.304688 102.84375 1280.050781 121.101562 1368.324219 121.101562 C 1456.5625 121.101562 1501.34375 102.875 1544.628906 85.207031 C 1587.316406 67.820312 1627.605469 51.40625 1710.40625 51.40625 L 1710.40625 23.523438 C 1622.167969 23.523438 1577.386719 41.75 1534.101562 59.417969 C 1491.414062 76.808594 1451.125 93.222656 1368.324219 93.222656 C 1285.523438 93.222656 1245.238281 76.808594 1202.546875 59.417969 C 1159.261719 41.785156 1114.480469 23.523438 1026.242188 23.523438 C 938.003906 23.523438 893.222656 41.75 849.941406 59.417969 C 807.25 76.808594 766.964844 93.222656 684.164062 93.222656 C 601.359375 93.222656 561.074219 76.808594 518.382812 59.417969 C 475.101562 41.785156 430.320312 23.523438 342.082031 23.523438 C 253.84375 23.523438 209.0625 41.75 165.777344 59.417969 C 123.121094 76.808594 82.800781 93.222656 0 93.222656 Z M 0 121.101562 " fill-opacity="1" fill-rule="nonzero"/></g><g clip-path="url(#10e644b45f)"><path fill="#173664" d="M 0 353.085938 C 92.699219 353.085938 141.664062 333.117188 184.839844 315.519531 C 225.40625 299 263.738281 283.386719 342.082031 283.386719 C 420.421875 283.386719 458.757812 299 499.320312 315.519531 C 542.535156 333.117188 591.496094 353.085938 684.164062 353.085938 C 776.863281 353.085938 825.824219 333.117188 869.003906 315.519531 C 909.566406 299 947.867188 283.386719 1026.242188 283.386719 C 1104.621094 283.386719 1142.917969 299 1183.484375 315.519531 C 1226.695312 333.117188 1275.625 353.085938 1368.324219 353.085938 C 1461.023438 353.085938 1509.988281 333.117188 1553.164062 315.519531 C 1593.730469 299 1632.03125 283.386719 1710.40625 283.386719 L 1710.40625 210.203125 C 1617.707031 210.203125 1568.742188 230.171875 1525.566406 247.773438 C 1485 264.289062 1446.699219 279.902344 1368.324219 279.902344 C 1289.949219 279.902344 1251.648438 264.289062 1211.085938 247.773438 C 1167.90625 230.171875 1118.941406 210.203125 1026.242188 210.203125 C 933.542969 210.203125 884.582031 230.136719 841.402344 247.773438 C 800.839844 264.289062 762.539062 279.902344 684.164062 279.902344 C 605.820312 279.902344 567.488281 264.289062 526.921875 247.773438 C 483.742188 230.171875 434.78125 210.203125 342.082031 210.203125 C 249.382812 210.203125 200.417969 230.136719 157.242188 247.773438 C 116.675781 264.289062 78.339844 279.902344 0 279.902344 Z M 0 353.085938 " fill-opacity="1" fill-rule="nonzero"/></g><g clip-path="url(#5420078e03)"><path fill="#ffffff" d="M 0 330.433594 C 88.273438 330.433594 133.019531 312.207031 176.304688 294.539062 C 218.992188 277.148438 259.277344 260.734375 342.082031 260.734375 C 424.882812 260.734375 465.203125 277.148438 507.859375 294.539062 C 551.140625 312.171875 595.925781 330.433594 684.164062 330.433594 C 772.402344 330.433594 817.183594 312.207031 860.464844 294.539062 C 903.15625 277.148438 943.441406 260.734375 1026.242188 260.734375 C 1109.046875 260.734375 1149.332031 277.148438 1192.023438 294.539062 C 1235.304688 312.171875 1280.050781 330.433594 1368.324219 330.433594 C 1456.5625 330.433594 1501.34375 312.207031 1544.628906 294.539062 C 1587.316406 277.148438 1627.605469 260.734375 1710.40625 260.734375 L 1710.40625 232.855469 C 1622.167969 232.855469 1577.386719 251.082031 1534.101562 268.75 C 1491.414062 286.140625 1451.125 302.554688 1368.324219 302.554688 C 1285.523438 302.554688 1245.238281 286.140625 1202.546875 268.75 C 1159.261719 251.117188 1114.480469 232.855469 1026.242188 232.855469 C 938.003906 232.855469 893.222656 251.082031 849.941406 268.75 C 807.25 286.140625 766.964844 302.554688 684.164062 302.554688 C 601.359375 302.554688 561.074219 286.140625 518.382812 268.75 C 475.101562 251.117188 430.320312 232.855469 342.082031 232.855469 C 253.84375 232.855469 209.0625 251.082031 165.777344 268.75 C 123.121094 286.140625 82.800781 302.554688 0 302.554688 Z M 0 330.433594 " fill-opacity="1" fill-rule="nonzero"/></g><g clip-path="url(#4cdee07ec7)"><path fill="#173664" d="M 2.65625 249.050781 C 95.355469 249.050781 144.320312 229.082031 187.5 211.480469 C 228.0625 194.964844 266.398438 179.351562 344.738281 179.351562 C 423.078125 179.351562 461.414062 194.964844 501.980469 211.480469 C 545.191406 229.082031 594.15625 249.050781 686.820312 249.050781 C 779.519531 249.050781 828.480469 229.082031 871.660156 211.480469 C 912.226562 194.964844 950.523438 179.351562 1028.902344 179.351562 C 1107.277344 179.351562 1145.578125 194.964844 1186.140625 211.480469 C 1229.355469 229.082031 1278.28125 249.050781 1370.980469 249.050781 C 1463.679688 249.050781 1512.644531 229.082031 1555.824219 211.480469 C 1596.386719 194.964844 1634.6875 179.351562 1713.0625 179.351562 L 1713.0625 106.167969 C 1620.363281 106.167969 1571.402344 126.136719 1528.222656 143.734375 C 1487.65625 160.253906 1449.359375 175.867188 1370.980469 175.867188 C 1292.605469 175.867188 1254.304688 160.253906 1213.742188 143.734375 C 1170.5625 126.136719 1121.601562 106.167969 1028.902344 106.167969 C 936.203125 106.167969 887.238281 126.101562 844.058594 143.734375 C 803.496094 160.253906 765.195312 175.867188 686.820312 175.867188 C 608.476562 175.867188 570.144531 160.253906 529.578125 143.734375 C 486.402344 126.136719 437.4375 106.167969 344.738281 106.167969 C 252.039062 106.167969 203.074219 126.101562 159.898438 143.734375 C 119.332031 160.253906 81 175.867188 2.65625 175.867188 Z M 2.65625 249.050781 " fill-opacity="1" fill-rule="nonzero"/></g><g clip-path="url(#a6e6a64350)"><path fill="#b28735" d="M 2.65625 226.398438 C 90.929688 226.398438 135.675781 208.171875 178.960938 190.503906 C 221.652344 173.113281 261.9375 156.699219 344.738281 156.699219 C 427.539062 156.699219 467.859375 173.113281 510.515625 190.503906 C 553.800781 208.136719 598.582031 226.398438 686.820312 226.398438 C 775.058594 226.398438 819.839844 208.171875 863.121094 190.503906 C 905.8125 173.113281 946.097656 156.699219 1028.902344 156.699219 C 1111.703125 156.699219 1151.988281 173.113281 1194.679688 190.503906 C 1237.960938 208.136719 1282.707031 226.398438 1370.980469 226.398438 C 1459.21875 226.398438 1504 208.171875 1547.285156 190.503906 C 1589.976562 173.113281 1630.261719 156.699219 1713.0625 156.699219 L 1713.0625 128.820312 C 1624.824219 128.820312 1580.042969 147.046875 1536.761719 164.714844 C 1494.070312 182.105469 1453.785156 198.519531 1370.980469 198.519531 C 1288.179688 198.519531 1247.894531 182.105469 1205.203125 164.714844 C 1161.921875 147.082031 1117.140625 128.820312 1028.902344 128.820312 C 940.664062 128.820312 895.878906 147.046875 852.597656 164.714844 C 809.90625 182.105469 769.621094 198.519531 686.820312 198.519531 C 604.019531 198.519531 563.730469 182.105469 521.042969 164.714844 C 477.757812 147.082031 432.976562 128.820312 344.738281 128.820312 C 256.5 128.820312 211.71875 147.046875 168.4375 164.714844 C 125.78125 182.105469 85.460938 198.519531 2.65625 198.519531 Z M 2.65625 226.398438 " fill-opacity="1" fill-rule="nonzero"/></g></g></g><g transform="matrix(1, 0, 0, 1, 0, 1197)"><g clip-path="url(#c9dc35a3f5)"><g clip-path="url(#ad0e2eb20f)"><path fill="#173664" d="M 0 143.253906 C 92.699219 143.253906 141.664062 123.285156 184.839844 105.6875 C 225.40625 89.167969 263.738281 73.554688 342.082031 73.554688 C 420.421875 73.554688 458.757812 89.167969 499.320312 105.6875 C 542.535156 123.285156 591.496094 143.253906 684.164062 143.253906 C 776.863281 143.253906 825.824219 123.285156 869.003906 105.6875 C 909.566406 89.167969 947.867188 73.554688 1026.242188 73.554688 C 1104.621094 73.554688 1142.917969 89.167969 1183.484375 105.6875 C 1226.695312 123.285156 1275.625 143.253906 1368.324219 143.253906 C 1461.023438 143.253906 1509.988281 123.285156 1553.164062 105.6875 C 1593.730469 89.167969 1632.03125 73.554688 1710.40625 73.554688 L 1710.40625 0.371094 C 1617.707031 0.371094 1568.742188 20.339844 1525.566406 37.9375 C 1485 54.457031 1446.699219 70.070312 1368.324219 70.070312 C 1289.949219 70.070312 1251.648438 54.457031 1211.085938 37.9375 C 1167.90625 20.339844 1118.941406 0.371094 1026.242188 0.371094 C 933.542969 0.371094 884.582031 20.304688 841.402344 37.9375 C 800.839844 54.457031 762.539062 70.070312 684.164062 70.070312 C 605.820312 70.070312 567.488281 54.457031 526.921875 37.9375 C 483.742188 20.339844 434.78125 0.371094 342.082031 0.371094 C 249.382812 0.371094 200.417969 20.304688 157.242188 37.9375 C 116.675781 54.457031 78.339844 70.070312 0 70.070312 Z M 0 143.253906 " fill-opacity="1" fill-rule="nonzero"/></g><g clip-path="url(#9f654ba548)"><path fill="#ffffff" d="M 0 120.601562 C 88.273438 120.601562 133.019531 102.375 176.304688 84.707031 C 218.992188 67.316406 259.277344 50.902344 342.082031 50.902344 C 424.882812 50.902344 465.203125 67.316406 507.859375 84.707031 C 551.140625 102.339844 595.925781 120.601562 684.164062 120.601562 C 772.402344 120.601562 817.183594 102.375 860.464844 84.707031 C 903.15625 67.316406 943.441406 50.902344 1026.242188 50.902344 C 1109.046875 50.902344 1149.332031 67.316406 1192.023438 84.707031 C 1235.304688 102.339844 1280.050781 120.601562 1368.324219 120.601562 C 1456.5625 120.601562 1501.34375 102.375 1544.628906 84.707031 C 1587.316406 67.316406 1627.605469 50.902344 1710.40625 50.902344 L 1710.40625 23.023438 C 1622.167969 23.023438 1577.386719 41.25 1534.101562 58.917969 C 1491.414062 76.308594 1451.125 92.722656 1368.324219 92.722656 C 1285.523438 92.722656 1245.238281 76.308594 1202.546875 58.917969 C 1159.261719 41.285156 1114.480469 23.023438 1026.242188 23.023438 C 938.003906 23.023438 893.222656 41.25 849.941406 58.917969 C 807.25 76.308594 766.964844 92.722656 684.164062 92.722656 C 601.359375 92.722656 561.074219 76.308594 518.382812 58.917969 C 475.101562 41.285156 430.320312 23.023438 342.082031 23.023438 C 253.84375 23.023438 209.0625 41.25 165.777344 58.917969 C 123.121094 76.308594 82.800781 92.722656 0 92.722656 Z M 0 120.601562 " fill-opacity="1" fill-rule="nonzero"/></g><g clip-path="url(#97f0932799)"><path fill="#173664" d="M 0 352.585938 C 92.699219 352.585938 141.664062 332.617188 184.839844 315.019531 C 225.40625 298.5 263.738281 282.886719 342.082031 282.886719 C 420.421875 282.886719 458.757812 298.5 499.320312 315.019531 C 542.535156 332.617188 591.496094 352.585938 684.164062 352.585938 C 776.863281 352.585938 825.824219 332.617188 869.003906 315.019531 C 909.566406 298.5 947.867188 282.886719 1026.242188 282.886719 C 1104.621094 282.886719 1142.917969 298.5 1183.484375 315.019531 C 1226.695312 332.617188 1275.625 352.585938 1368.324219 352.585938 C 1461.023438 352.585938 1509.988281 332.617188 1553.164062 315.019531 C 1593.730469 298.5 1632.03125 282.886719 1710.40625 282.886719 L 1710.40625 209.703125 C 1617.707031 209.703125 1568.742188 229.671875 1525.566406 247.269531 C 1485 263.789062 1446.699219 279.402344 1368.324219 279.402344 C 1289.949219 279.402344 1251.648438 263.789062 1211.085938 247.269531 C 1167.90625 229.671875 1118.941406 209.703125 1026.242188 209.703125 C 933.542969 209.703125 884.582031 229.636719 841.402344 247.269531 C 800.839844 263.789062 762.539062 279.402344 684.164062 279.402344 C 605.820312 279.402344 567.488281 263.789062 526.921875 247.269531 C 483.742188 229.671875 434.78125 209.703125 342.082031 209.703125 C 249.382812 209.703125 200.417969 229.636719 157.242188 247.269531 C 116.675781 263.789062 78.339844 279.402344 0 279.402344 Z M 0 352.585938 " fill-opacity="1" fill-rule="nonzero"/></g><g clip-path="url(#3328e57188)"><path fill="#ffffff" d="M 0 329.933594 C 88.273438 329.933594 133.019531 311.707031 176.304688 294.039062 C 218.992188 276.648438 259.277344 260.234375 342.082031 260.234375 C 424.882812 260.234375 465.203125 276.648438 507.859375 294.039062 C 551.140625 311.671875 595.925781 329.933594 684.164062 329.933594 C 772.402344 329.933594 817.183594 311.707031 860.464844 294.039062 C 903.15625 276.648438 943.441406 260.234375 1026.242188 260.234375 C 1109.046875 260.234375 1149.332031 276.648438 1192.023438 294.039062 C 1235.304688 311.671875 1280.050781 329.933594 1368.324219 329.933594 C 1456.5625 329.933594 1501.34375 311.707031 1544.628906 294.039062 C 1587.316406 276.648438 1627.605469 260.234375 1710.40625 260.234375 L 1710.40625 232.355469 C 1622.167969 232.355469 1577.386719 250.582031 1534.101562 268.25 C 1491.414062 285.640625 1451.125 302.054688 1368.324219 302.054688 C 1285.523438 302.054688 1245.238281 285.640625 1202.546875 268.25 C 1159.261719 250.617188 1114.480469 232.355469 1026.242188 232.355469 C 938.003906 232.355469 893.222656 250.582031 849.941406 268.25 C 807.25 285.640625 766.964844 302.054688 684.164062 302.054688 C 601.359375 302.054688 561.074219 285.640625 518.382812 268.25 C 475.101562 250.617188 430.320312 232.355469 342.082031 232.355469 C 253.84375 232.355469 209.0625 250.582031 165.777344 268.25 C 123.121094 285.640625 82.800781 302.054688 0 302.054688 Z M 0 329.933594 " fill-opacity="1" fill-rule="nonzero"/></g><g clip-path="url(#870b7e2049)"><path fill="#173664" d="M 2.65625 248.546875 C 95.355469 248.546875 144.320312 228.578125 187.5 210.980469 C 228.0625 194.460938 266.398438 178.847656 344.738281 178.847656 C 423.078125 178.847656 461.414062 194.460938 501.980469 210.980469 C 545.191406 228.578125 594.15625 248.546875 686.820312 248.546875 C 779.519531 248.546875 828.480469 228.578125 871.660156 210.980469 C 912.226562 194.460938 950.523438 178.847656 1028.902344 178.847656 C 1107.277344 178.847656 1145.578125 194.460938 1186.140625 210.980469 C 1229.355469 228.578125 1278.28125 248.546875 1370.980469 248.546875 C 1463.679688 248.546875 1512.644531 228.578125 1555.824219 210.980469 C 1596.386719 194.460938 1634.6875 178.847656 1713.0625 178.847656 L 1713.0625 105.664062 C 1620.363281 105.664062 1571.402344 125.632812 1528.222656 143.234375 C 1487.65625 159.75 1449.359375 175.363281 1370.980469 175.363281 C 1292.605469 175.363281 1254.304688 159.75 1213.742188 143.234375 C 1170.5625 125.632812 1121.601562 105.664062 1028.902344 105.664062 C 936.203125 105.664062 887.238281 125.597656 844.058594 143.234375 C 803.496094 159.75 765.195312 175.363281 686.820312 175.363281 C 608.476562 175.363281 570.144531 159.75 529.578125 143.234375 C 486.402344 125.632812 437.4375 105.664062 344.738281 105.664062 C 252.039062 105.664062 203.074219 125.597656 159.898438 143.234375 C 119.332031 159.75 81 175.363281 2.65625 175.363281 Z M 2.65625 248.546875 " fill-opacity="1" fill-rule="nonzero"/></g><g clip-path="url(#ff01fbf69b)"><path fill="#b28735" d="M 2.65625 225.894531 C 90.929688 225.894531 135.675781 207.667969 178.960938 190 C 221.652344 172.609375 261.9375 156.199219 344.738281 156.199219 C 427.539062 156.199219 467.859375 172.609375 510.515625 190 C 553.800781 207.636719 598.582031 225.894531 686.820312 225.894531 C 775.058594 225.894531 819.839844 207.667969 863.121094 190 C 905.8125 172.609375 946.097656 156.199219 1028.902344 156.199219 C 1111.703125 156.199219 1151.988281 172.609375 1194.679688 190 C 1237.960938 207.636719 1282.707031 225.894531 1370.980469 225.894531 C 1459.21875 225.894531 1504 207.667969 1547.285156 190 C 1589.976562 172.609375 1630.261719 156.199219 1713.0625 156.199219 L 1713.0625 128.316406 C 1624.824219 128.316406 1580.042969 146.542969 1536.761719 164.210938 C 1494.070312 181.601562 1453.785156 198.015625 1370.980469 198.015625 C 1288.179688 198.015625 1247.894531 181.601562 1205.203125 164.210938 C 1161.921875 146.578125 1117.140625 128.316406 1028.902344 128.316406 C 940.664062 128.316406 895.878906 146.542969 852.597656 164.210938 C 809.90625 181.601562 769.621094 198.015625 686.820312 198.015625 C 604.019531 198.015625 563.730469 181.601562 521.042969 164.210938 C 477.757812 146.578125 432.976562 128.316406 344.738281 128.316406 C 256.5 128.316406 211.71875 146.542969 168.4375 164.210938 C 125.78125 181.601562 85.460938 198.015625 2.65625 198.015625 Z M 2.65625 225.894531 " fill-opacity="1" fill-rule="nonzero"/></g></g></g><g transform="matrix(1, 0, 0, 1, 0, 0.000000000000112861)"><g clip-path="url(#2d0bfe0ef7)"><g clip-path="url(#7c7ba19772)"><path fill="#173664" d="M 0 93.292969 C 92.699219 93.292969 141.664062 73.324219 184.839844 55.726562 C 225.40625 39.207031 263.738281 23.59375 342.082031 23.59375 C 420.421875 23.59375 458.757812 39.207031 499.320312 55.726562 C 542.535156 73.324219 591.496094 93.292969 684.164062 93.292969 C 776.863281 93.292969 825.824219 73.324219 869.003906 55.726562 C 909.566406 39.207031 947.867188 23.59375 1026.242188 23.59375 C 1104.621094 23.59375 1142.917969 39.207031 1183.484375 55.726562 C 1226.695312 73.324219 1275.625 93.292969 1368.324219 93.292969 C 1461.023438 93.292969 1509.988281 73.324219 1553.164062 55.726562 C 1593.730469 39.207031 1632.03125 23.59375 1710.40625 23.59375 L 1710.40625 -49.589844 C 1617.707031 -49.589844 1568.742188 -29.621094 1525.566406 -12.019531 C 1485 4.496094 1446.699219 20.109375 1368.324219 20.109375 C 1289.949219 20.109375 1251.648438 4.496094 1211.085938 -12.019531 C 1167.90625 -29.621094 1118.941406 -49.589844 1026.242188 -49.589844 C 933.542969 -49.589844 884.582031 -29.65625 841.402344 -12.019531 C 800.839844 4.496094 762.539062 20.109375 684.164062 20.109375 C 605.820312 20.109375 567.488281 4.496094 526.921875 -12.019531 C 483.742188 -29.621094 434.78125 -49.589844 342.082031 -49.589844 C 249.382812 -49.589844 200.417969 -29.65625 157.242188 -12.019531 C 116.675781 4.496094 78.339844 20.109375 0 20.109375 Z M 0 93.292969 " fill-opacity="1" fill-rule="nonzero"/></g><g clip-path="url(#0445a115b9)"><path fill="#ffffff" d="M 0 70.640625 C 88.273438 70.640625 133.019531 52.414062 176.304688 34.746094 C 218.992188 17.355469 259.277344 0.941406 342.082031 0.941406 C 424.882812 0.941406 465.203125 17.355469 507.859375 34.746094 C 551.140625 52.382812 595.925781 70.640625 684.164062 70.640625 C 772.402344 70.640625 817.183594 52.414062 860.464844 34.746094 C 903.15625 17.355469 943.441406 0.941406 1026.242188 0.941406 C 1109.046875 0.941406 1149.332031 17.355469 1192.023438 34.746094 C 1235.304688 52.382812 1280.050781 70.640625 1368.324219 70.640625 C 1456.5625 70.640625 1501.34375 52.414062 1544.628906 34.746094 C 1587.316406 17.355469 1627.605469 0.941406 1710.40625 0.941406 L 1710.40625 -26.9375 C 1622.167969 -26.9375 1577.386719 -8.710938 1534.101562 8.957031 C 1491.414062 26.347656 1451.125 42.761719 1368.324219 42.761719 C 1285.523438 42.761719 1245.238281 26.347656 1202.546875 8.957031 C 1159.261719 -8.675781 1114.480469 -26.9375 1026.242188 -26.9375 C 938.003906 -26.9375 893.222656 -8.710938 849.941406 8.957031 C 807.25 26.347656 766.964844 42.761719 684.164062 42.761719 C 601.359375 42.761719 561.074219 26.347656 518.382812 8.957031 C 475.101562 -8.675781 430.320312 -26.9375 342.082031 -26.9375 C 253.84375 -26.9375 209.0625 -8.710938 165.777344 8.957031 C 123.121094 26.347656 82.800781 42.761719 0 42.761719 Z M 0 70.640625 " fill-opacity="1" fill-rule="nonzero"/></g><g clip-path="url(#906080fbdb)"><path fill="#173664" d="M 0 302.625 C 92.699219 302.625 141.664062 282.65625 184.839844 265.058594 C 225.40625 248.539062 263.738281 232.925781 342.082031 232.925781 C 420.421875 232.925781 458.757812 248.539062 499.320312 265.058594 C 542.535156 282.65625 591.496094 302.625 684.164062 302.625 C 776.863281 302.625 825.824219 282.65625 869.003906 265.058594 C 909.566406 248.539062 947.867188 232.925781 1026.242188 232.925781 C 1104.621094 232.925781 1142.917969 248.539062 1183.484375 265.058594 C 1226.695312 282.65625 1275.625 302.625 1368.324219 302.625 C 1461.023438 302.625 1509.988281 282.65625 1553.164062 265.058594 C 1593.730469 248.539062 1632.03125 232.925781 1710.40625 232.925781 L 1710.40625 159.742188 C 1617.707031 159.742188 1568.742188 179.710938 1525.566406 197.3125 C 1485 213.828125 1446.699219 229.441406 1368.324219 229.441406 C 1289.949219 229.441406 1251.648438 213.828125 1211.085938 197.3125 C 1167.90625 179.710938 1118.941406 159.742188 1026.242188 159.742188 C 933.542969 159.742188 884.582031 179.675781 841.402344 197.3125 C 800.839844 213.828125 762.539062 229.441406 684.164062 229.441406 C 605.820312 229.441406 567.488281 213.828125 526.921875 197.3125 C 483.742188 179.710938 434.78125 159.742188 342.082031 159.742188 C 249.382812 159.742188 200.417969 179.675781 157.242188 197.3125 C 116.675781 213.828125 78.339844 229.441406 0 229.441406 Z M 0 302.625 " fill-opacity="1" fill-rule="nonzero"/></g><g clip-path="url(#a3fa20532b)"><path fill="#ffffff" d="M 0 279.972656 C 88.273438 279.972656 133.019531 261.746094 176.304688 244.078125 C 218.992188 226.6875 259.277344 210.273438 342.082031 210.273438 C 424.882812 210.273438 465.203125 226.6875 507.859375 244.078125 C 551.140625 261.710938 595.925781 279.972656 684.164062 279.972656 C 772.402344 279.972656 817.183594 261.746094 860.464844 244.078125 C 903.15625 226.6875 943.441406 210.273438 1026.242188 210.273438 C 1109.046875 210.273438 1149.332031 226.6875 1192.023438 244.078125 C 1235.304688 261.710938 1280.050781 279.972656 1368.324219 279.972656 C 1456.5625 279.972656 1501.34375 261.746094 1544.628906 244.078125 C 1587.316406 226.6875 1627.605469 210.273438 1710.40625 210.273438 L 1710.40625 182.394531 C 1622.167969 182.394531 1577.386719 200.621094 1534.101562 218.289062 C 1491.414062 235.679688 1451.125 252.09375 1368.324219 252.09375 C 1285.523438 252.09375 1245.238281 235.679688 1202.546875 218.289062 C 1159.261719 200.65625 1114.480469 182.394531 1026.242188 182.394531 C 938.003906 182.394531 893.222656 200.621094 849.941406 218.289062 C 807.25 235.679688 766.964844 252.09375 684.164062 252.09375 C 601.359375 252.09375 561.074219 235.679688 518.382812 218.289062 C 475.101562 200.65625 430.320312 182.394531 342.082031 182.394531 C 253.84375 182.394531 209.0625 200.621094 165.777344 218.289062 C 123.121094 235.679688 82.800781 252.09375 0 252.09375 Z M 0 279.972656 " fill-opacity="1" fill-rule="nonzero"/></g><g clip-path="url(#f8d52b770c)"><path fill="#173664" d="M 2.65625 198.589844 C 95.355469 198.589844 144.320312 178.621094 187.5 161.019531 C 228.0625 144.503906 266.398438 128.890625 344.738281 128.890625 C 423.078125 128.890625 461.414062 144.503906 501.980469 161.019531 C 545.191406 178.621094 594.15625 198.589844 686.820312 198.589844 C 779.519531 198.589844 828.480469 178.621094 871.660156 161.019531 C 912.226562 144.503906 950.523438 128.890625 1028.902344 128.890625 C 1107.277344 128.890625 1145.578125 144.503906 1186.140625 161.019531 C 1229.355469 178.621094 1278.28125 198.589844 1370.980469 198.589844 C 1463.679688 198.589844 1512.644531 178.621094 1555.824219 161.019531 C 1596.386719 144.503906 1634.6875 128.890625 1713.0625 128.890625 L 1713.0625 55.707031 C 1620.363281 55.707031 1571.402344 75.675781 1528.222656 93.273438 C 1487.65625 109.792969 1449.359375 125.40625 1370.980469 125.40625 C 1292.605469 125.40625 1254.304688 109.792969 1213.742188 93.273438 C 1170.5625 75.675781 1121.601562 55.707031 1028.902344 55.707031 C 936.203125 55.707031 887.238281 75.640625 844.058594 93.273438 C 803.496094 109.792969 765.195312 125.40625 686.820312 125.40625 C 608.476562 125.40625 570.144531 109.792969 529.578125 93.273438 C 486.402344 75.675781 437.4375 55.707031 344.738281 55.707031 C 252.039062 55.707031 203.074219 75.640625 159.898438 93.273438 C 119.332031 109.792969 81 125.40625 2.65625 125.40625 Z M 2.65625 198.589844 " fill-opacity="1" fill-rule="nonzero"/></g><g clip-path="url(#75ed132157)"><path fill="#b28735" d="M 2.65625 175.9375 C 90.929688 175.9375 135.675781 157.710938 178.960938 140.042969 C 221.652344 122.652344 261.9375 106.238281 344.738281 106.238281 C 427.539062 106.238281 467.859375 122.652344 510.515625 140.042969 C 553.800781 157.675781 598.582031 175.9375 686.820312 175.9375 C 775.058594 175.9375 819.839844 157.710938 863.121094 140.042969 C 905.8125 122.652344 946.097656 106.238281 1028.902344 106.238281 C 1111.703125 106.238281 1151.988281 122.652344 1194.679688 140.042969 C 1237.960938 157.675781 1282.707031 175.9375 1370.980469 175.9375 C 1459.21875 175.9375 1504 157.710938 1547.285156 140.042969 C 1589.976562 122.652344 1630.261719 106.238281 1713.0625 106.238281 L 1713.0625 78.359375 C 1624.824219 78.359375 1580.042969 96.585938 1536.761719 114.253906 C 1494.070312 131.644531 1453.785156 148.058594 1370.980469 148.058594 C 1288.179688 148.058594 1247.894531 131.644531 1205.203125 114.253906 C 1161.921875 96.617188 1117.140625 78.359375 1028.902344 78.359375 C 940.664062 78.359375 895.878906 96.585938 852.597656 114.253906 C 809.90625 131.644531 769.621094 148.058594 686.820312 148.058594 C 604.019531 148.058594 563.730469 131.644531 521.042969 114.253906 C 477.757812 96.617188 432.976562 78.359375 344.738281 78.359375 C 256.5 78.359375 211.71875 96.585938 168.4375 114.253906 C 125.78125 131.644531 85.460938 148.058594 2.65625 148.058594 Z M 2.65625 175.9375 " fill-opacity="1" fill-rule="nonzero"/></g></g></g></svg>