<svg xmlns="http://www.w3.org/2000/svg" xmlns:xlink="http://www.w3.org/1999/xlink" width="2400" zoomAndPan="magnify" viewBox="0 0 1800 269.999989" height="360" preserveAspectRatio="xMidYMid meet" version="1.0"><defs><g/><clipPath id="fe03486dad"><path d="M 2.683594 0.761719 L 422.554688 0.761719 L 422.554688 42.75 L 2.683594 42.75 Z M 2.683594 0.761719 " clip-rule="nonzero"/></clipPath><clipPath id="d0c5ea0e5b"><path d="M 2.683594 7 L 422.554688 7 L 422.554688 37 L 2.683594 37 Z M 2.683594 7 " clip-rule="nonzero"/></clipPath><clipPath id="e7d8ed8a9a"><path d="M 2.683594 62.371094 L 421.820312 62.371094 L 421.820312 104.359375 L 2.683594 104.359375 Z M 2.683594 62.371094 " clip-rule="nonzero"/></clipPath><clipPath id="0d9832efa4"><path d="M 2.683594 69 L 421.820312 69 L 421.820312 98 L 2.683594 98 Z M 2.683594 69 " clip-rule="nonzero"/></clipPath><clipPath id="c5322f4753"><path d="M 0.679688 104 L 430 104 L 430 176 L 0.679688 176 Z M 0.679688 104 " clip-rule="nonzero"/></clipPath><clipPath id="1e93611cf2"><rect x="0" width="430" y="0" height="72"/></clipPath><clipPath id="cfafcde918"><path d="M 3.464844 31.753906 L 422.601562 31.753906 L 422.601562 73.738281 L 3.464844 73.738281 Z M 3.464844 31.753906 " clip-rule="nonzero"/></clipPath><clipPath id="e91d4c2884"><path d="M 3.464844 38 L 422.601562 38 L 422.601562 68 L 3.464844 68 Z M 3.464844 38 " clip-rule="nonzero"/></clipPath><clipPath id="ddf9b911b8"><path d="M 6 165 L 426 165 L 426 185.28125 L 6 185.28125 Z M 6 165 " clip-rule="nonzero"/></clipPath><clipPath id="430c5b5de5"><rect x="0" width="420" y="0" height="21"/></clipPath><clipPath id="315eab8c6d"><rect x="0" width="508" y="0" height="186"/></clipPath></defs><rect x="-180" width="2160" fill="#ffffff" y="-26.999999" height="323.999987" fill-opacity="1"/><rect x="-180" width="2160" fill="#173664" y="-26.999999" height="323.999987" fill-opacity="1"/><g transform="matrix(1, 0, 0, 1, 73, 42)"><g clip-path="url(#315eab8c6d)"><g clip-path="url(#fe03486dad)"><path fill="#173664" d="M 2.683594 42.839844 C 29.964844 42.839844 44.378906 36.960938 57.085938 31.78125 C 69.023438 26.921875 80.308594 22.324219 103.363281 22.324219 C 126.421875 22.324219 137.703125 26.921875 149.644531 31.78125 C 162.359375 36.960938 176.773438 42.839844 204.042969 42.839844 C 231.328125 42.839844 245.738281 36.960938 258.445312 31.78125 C 270.386719 26.921875 281.65625 22.324219 304.726562 22.324219 C 327.792969 22.324219 339.066406 26.921875 351.003906 31.78125 C 363.722656 36.960938 378.121094 42.839844 405.40625 42.839844 C 432.6875 42.839844 447.101562 36.960938 459.808594 31.78125 C 471.746094 26.921875 483.019531 22.324219 506.085938 22.324219 L 506.085938 0.785156 C 478.804688 0.785156 464.394531 6.664062 451.683594 11.84375 C 439.746094 16.707031 428.472656 21.300781 405.40625 21.300781 C 382.339844 21.300781 371.066406 16.707031 359.128906 11.84375 C 346.417969 6.664062 332.007812 0.785156 304.726562 0.785156 C 277.441406 0.785156 263.03125 6.652344 250.324219 11.84375 C 238.382812 16.707031 227.113281 21.300781 204.042969 21.300781 C 180.988281 21.300781 169.703125 16.707031 157.765625 11.84375 C 145.058594 6.664062 130.648438 0.785156 103.363281 0.785156 C 76.082031 0.785156 61.671875 6.652344 48.960938 11.84375 C 37.023438 16.707031 25.742188 21.300781 2.683594 21.300781 Z M 2.683594 42.839844 " fill-opacity="1" fill-rule="nonzero"/></g><g clip-path="url(#d0c5ea0e5b)"><path fill="#ffffff" d="M 2.683594 36.171875 C 28.664062 36.171875 41.832031 30.808594 54.574219 25.609375 C 67.136719 20.488281 78.992188 15.660156 103.363281 15.660156 C 127.734375 15.660156 139.601562 20.488281 152.15625 25.609375 C 164.894531 30.796875 178.074219 36.171875 204.042969 36.171875 C 230.015625 36.171875 243.195312 30.808594 255.933594 25.609375 C 268.5 20.488281 280.355469 15.660156 304.726562 15.660156 C 329.09375 15.660156 340.953125 20.488281 353.515625 25.609375 C 366.257812 30.796875 379.425781 36.171875 405.40625 36.171875 C 431.375 36.171875 444.554688 30.808594 457.296875 25.609375 C 469.859375 20.488281 481.714844 15.660156 506.085938 15.660156 L 506.085938 7.453125 C 480.117188 7.453125 466.9375 12.816406 454.199219 18.019531 C 441.632812 23.136719 429.777344 27.96875 405.40625 27.96875 C 381.035156 27.96875 369.179688 23.136719 356.613281 18.019531 C 343.875 12.828125 330.695312 7.453125 304.726562 7.453125 C 278.753906 7.453125 265.574219 12.816406 252.835938 18.019531 C 240.273438 23.136719 228.414062 27.96875 204.042969 27.96875 C 179.675781 27.96875 167.816406 23.136719 155.253906 18.019531 C 142.515625 12.828125 129.335938 7.453125 103.363281 7.453125 C 77.394531 7.453125 64.214844 12.816406 51.476562 18.019531 C 38.921875 23.136719 27.054688 27.96875 2.683594 27.96875 Z M 2.683594 36.171875 " fill-opacity="1" fill-rule="nonzero"/></g><g clip-path="url(#e7d8ed8a9a)"><path fill="#173664" d="M 2.683594 104.449219 C 29.964844 104.449219 44.378906 98.574219 57.085938 93.394531 C 69.023438 88.53125 80.308594 83.9375 103.363281 83.9375 C 126.421875 83.9375 137.703125 88.53125 149.644531 93.394531 C 162.359375 98.574219 176.773438 104.449219 204.042969 104.449219 C 231.328125 104.449219 245.738281 98.574219 258.445312 93.394531 C 270.386719 88.53125 281.65625 83.9375 304.726562 83.9375 C 327.792969 83.9375 339.066406 88.53125 351.003906 93.394531 C 363.722656 98.574219 378.121094 104.449219 405.40625 104.449219 C 432.6875 104.449219 447.101562 98.574219 459.808594 93.394531 C 471.746094 88.53125 483.019531 83.9375 506.085938 83.9375 L 506.085938 62.398438 C 478.804688 62.398438 464.394531 68.273438 451.683594 73.453125 C 439.746094 78.316406 428.472656 82.910156 405.40625 82.910156 C 382.339844 82.910156 371.066406 78.316406 359.128906 73.453125 C 346.417969 68.273438 332.007812 62.398438 304.726562 62.398438 C 277.441406 62.398438 263.03125 68.265625 250.324219 73.453125 C 238.382812 78.316406 227.113281 82.910156 204.042969 82.910156 C 180.988281 82.910156 169.703125 78.316406 157.765625 73.453125 C 145.058594 68.273438 130.648438 62.398438 103.363281 62.398438 C 76.082031 62.398438 61.671875 68.265625 48.960938 73.453125 C 37.023438 78.316406 25.742188 82.910156 2.683594 82.910156 Z M 2.683594 104.449219 " fill-opacity="1" fill-rule="nonzero"/></g><g clip-path="url(#0d9832efa4)"><path fill="#ffffff" d="M 2.683594 97.78125 C 28.664062 97.78125 41.832031 92.417969 54.574219 87.21875 C 67.136719 82.101562 78.992188 77.269531 103.363281 77.269531 C 127.734375 77.269531 139.601562 82.101562 152.15625 87.21875 C 164.894531 92.410156 178.074219 97.78125 204.042969 97.78125 C 230.015625 97.78125 243.195312 92.417969 255.933594 87.21875 C 268.5 82.101562 280.355469 77.269531 304.726562 77.269531 C 329.09375 77.269531 340.953125 82.101562 353.515625 87.21875 C 366.257812 92.410156 379.425781 97.78125 405.40625 97.78125 C 431.375 97.78125 444.554688 92.417969 457.296875 87.21875 C 469.859375 82.101562 481.714844 77.269531 506.085938 77.269531 L 506.085938 69.0625 C 480.117188 69.0625 466.9375 74.429688 454.199219 79.628906 C 441.632812 84.746094 429.777344 89.578125 405.40625 89.578125 C 381.035156 89.578125 369.179688 84.746094 356.613281 79.628906 C 343.875 74.4375 330.695312 69.0625 304.726562 69.0625 C 278.753906 69.0625 265.574219 74.429688 252.835938 79.628906 C 240.273438 84.746094 228.414062 89.578125 204.042969 89.578125 C 179.675781 89.578125 167.816406 84.746094 155.253906 79.628906 C 142.515625 74.4375 129.335938 69.0625 103.363281 69.0625 C 77.394531 69.0625 64.214844 74.429688 51.476562 79.628906 C 38.921875 84.746094 27.054688 89.578125 2.683594 89.578125 Z M 2.683594 97.78125 " fill-opacity="1" fill-rule="nonzero"/></g><g clip-path="url(#c5322f4753)"><g transform="matrix(1, 0, 0, 1, 0, 104)"><g clip-path="url(#1e93611cf2)"><g fill="#ffffff" fill-opacity="1"><g transform="translate(0.779802, 53.451407)"><g><path d="M 2.890625 0 L 2.890625 -41.25 L 15.96875 -41.25 L 34.46875 -10.78125 L 52.96875 -41.25 L 66.046875 -41.25 L 66.046875 0 L 56.734375 0 L 56.734375 -30.234375 L 38 0 L 31 0 L 12.203125 -30.234375 L 12.203125 0 Z M 2.890625 0 "/></g></g></g><g fill="#ffffff" fill-opacity="1"><g transform="translate(72.260995, 53.451407)"><g><path d="M 2.890625 0 L 2.890625 -41.25 L 46.484375 -41.25 L 46.484375 -33.765625 L 12.203125 -33.765625 L 12.203125 -24.15625 L 46.484375 -24.15625 L 46.484375 -17.09375 L 12.203125 -17.09375 L 12.203125 -7.484375 L 46.484375 -7.484375 L 46.484375 0 Z M 2.890625 0 "/></g></g></g><g fill="#ffffff" fill-opacity="1"><g transform="translate(122.704444, 53.451407)"><g><path d="M 22.984375 0 L 22.984375 -33.40625 L 2.296875 -33.40625 L 2.296875 -41.25 L 52.96875 -41.25 L 52.96875 -33.40625 L 32.296875 -33.40625 L 32.296875 0 Z M 22.984375 0 "/></g></g></g><g fill="#ffffff" fill-opacity="1"><g transform="translate(177.331862, 53.451407)"><g><path d="M 28.21875 0.59375 C 22.175781 0.59375 17.25 -0.238281 13.4375 -1.90625 C 9.625 -3.582031 6.8125 -6.007812 5 -9.1875 C 3.195312 -12.375 2.296875 -16.207031 2.296875 -20.6875 C 2.296875 -25.164062 3.195312 -28.984375 5 -32.140625 C 6.8125 -35.304688 9.625 -37.710938 13.4375 -39.359375 C 17.25 -41.003906 22.175781 -41.828125 28.21875 -41.828125 C 34.269531 -41.828125 39.203125 -40.992188 43.015625 -39.328125 C 46.828125 -37.660156 49.632812 -35.253906 51.4375 -32.109375 C 53.25 -28.972656 54.15625 -25.164062 54.15625 -20.6875 C 54.15625 -16.207031 53.25 -12.382812 51.4375 -9.21875 C 49.632812 -6.0625 46.828125 -3.632812 43.015625 -1.9375 C 39.203125 -0.25 34.269531 0.59375 28.21875 0.59375 Z M 28.21875 -7.25 C 34.03125 -7.25 38.253906 -8.296875 40.890625 -10.390625 C 43.523438 -12.492188 44.84375 -15.925781 44.84375 -20.6875 C 44.84375 -25.394531 43.535156 -28.789062 40.921875 -30.875 C 38.304688 -32.957031 34.070312 -34 28.21875 -34 C 22.40625 -34 18.179688 -32.96875 15.546875 -30.90625 C 12.921875 -28.84375 11.609375 -25.4375 11.609375 -20.6875 C 11.609375 -15.925781 12.921875 -12.492188 15.546875 -10.390625 C 18.179688 -8.296875 22.40625 -7.25 28.21875 -7.25 Z M 28.21875 -7.25 "/></g></g></g><g fill="#ffffff" fill-opacity="1"><g transform="translate(235.848615, 53.451407)"><g><path d="M 2.890625 0 L 2.890625 -41.25 L 15.796875 -41.25 L 46.71875 -9.546875 L 46.71875 -41.25 L 56.03125 -41.25 L 56.03125 0 L 43.1875 0 L 12.203125 -31.703125 L 12.203125 0 Z M 2.890625 0 "/></g></g></g><g fill="#ffffff" fill-opacity="1"><g transform="translate(295.131443, 53.451407)"><g><path d="M 26.28125 0 L 26.28125 -13.546875 L 2.296875 -41.25 L 13.78125 -41.25 L 30.9375 -21.453125 L 48.140625 -41.25 L 59.5625 -41.25 L 35.59375 -13.546875 L 35.59375 0 Z M 26.28125 0 "/></g></g></g><g fill="#ffffff" fill-opacity="1"><g transform="translate(357.655417, 53.451407)"><g><path d="M 2.890625 0 L 2.890625 -41.25 L 15.96875 -41.25 L 34.46875 -10.78125 L 52.96875 -41.25 L 66.046875 -41.25 L 66.046875 0 L 56.734375 0 L 56.734375 -30.234375 L 38 0 L 31 0 L 12.203125 -30.234375 L 12.203125 0 Z M 2.890625 0 "/></g></g></g></g></g></g><g clip-path="url(#cfafcde918)"><path fill="#173664" d="M 3.464844 73.828125 C 30.75 73.828125 45.160156 67.953125 57.867188 62.773438 C 69.804688 57.910156 81.089844 53.316406 104.144531 53.316406 C 127.203125 53.316406 138.484375 57.910156 150.425781 62.773438 C 163.144531 67.953125 177.554688 73.828125 204.828125 73.828125 C 232.109375 73.828125 246.519531 67.953125 259.230469 62.773438 C 271.167969 57.910156 282.441406 53.316406 305.507812 53.316406 C 328.574219 53.316406 339.847656 57.910156 351.785156 62.773438 C 364.503906 67.953125 378.90625 73.828125 406.1875 73.828125 C 433.472656 73.828125 447.882812 67.953125 460.589844 62.773438 C 472.527344 57.910156 483.800781 53.316406 506.867188 53.316406 L 506.867188 31.777344 C 479.585938 31.777344 465.175781 37.652344 452.464844 42.832031 C 440.527344 47.695312 429.253906 52.289062 406.1875 52.289062 C 383.121094 52.289062 371.847656 47.695312 359.910156 42.832031 C 347.203125 37.652344 332.789062 31.777344 305.507812 31.777344 C 278.222656 31.777344 263.8125 37.644531 251.105469 42.832031 C 239.167969 47.695312 227.894531 52.289062 204.828125 52.289062 C 181.769531 52.289062 170.488281 47.695312 158.546875 42.832031 C 145.839844 37.652344 131.429688 31.777344 104.144531 31.777344 C 76.863281 31.777344 62.453125 37.644531 49.742188 42.832031 C 37.804688 47.695312 26.523438 52.289062 3.464844 52.289062 Z M 3.464844 73.828125 " fill-opacity="1" fill-rule="nonzero"/></g><g clip-path="url(#e91d4c2884)"><path fill="#b28735" d="M 3.464844 67.164062 C 29.445312 67.164062 42.617188 61.796875 55.355469 56.597656 C 67.917969 51.480469 79.777344 46.648438 104.144531 46.648438 C 128.515625 46.648438 140.382812 51.480469 152.9375 56.597656 C 165.675781 61.789062 178.855469 67.164062 204.828125 67.164062 C 230.796875 67.164062 243.976562 61.796875 256.714844 56.597656 C 269.28125 51.480469 281.136719 46.648438 305.507812 46.648438 C 329.878906 46.648438 341.734375 51.480469 354.300781 56.597656 C 367.039062 61.789062 380.207031 67.164062 406.1875 67.164062 C 432.160156 67.164062 445.339844 61.796875 458.078125 56.597656 C 470.640625 51.480469 482.5 46.648438 506.867188 46.648438 L 506.867188 38.445312 C 480.898438 38.445312 467.71875 43.808594 454.980469 49.007812 C 442.414062 54.125 430.558594 58.957031 406.1875 58.957031 C 381.816406 58.957031 369.960938 54.125 357.398438 49.007812 C 344.65625 43.816406 331.476562 38.445312 305.507812 38.445312 C 279.539062 38.445312 266.355469 43.808594 253.617188 49.007812 C 241.054688 54.125 229.195312 58.957031 204.828125 58.957031 C 180.457031 58.957031 168.601562 54.125 156.035156 49.007812 C 143.296875 43.816406 130.117188 38.445312 104.144531 38.445312 C 78.175781 38.445312 64.996094 43.808594 52.257812 49.007812 C 39.703125 54.125 27.835938 58.957031 3.464844 58.957031 Z M 3.464844 67.164062 " fill-opacity="1" fill-rule="nonzero"/></g><g clip-path="url(#ddf9b911b8)"><g transform="matrix(1, 0, 0, 1, 6, 165)"><g clip-path="url(#430c5b5de5)"><g fill="#ffffff" fill-opacity="1"><g transform="translate(0.982907, 16.002512)"><g><path d="M 9.203125 -3.859375 L 12 -3.859375 C 11.738281 -3.078125 11.332031 -2.382812 10.78125 -1.78125 C 10.238281 -1.175781 9.59375 -0.695312 8.84375 -0.34375 C 8.101562 0 7.300781 0.171875 6.4375 0.171875 C 5.632812 0.171875 4.878906 0.0195312 4.171875 -0.28125 C 3.460938 -0.582031 2.835938 -1.003906 2.296875 -1.546875 C 1.753906 -2.085938 1.332031 -2.707031 1.03125 -3.40625 C 0.726562 -4.113281 0.578125 -4.867188 0.578125 -5.671875 C 0.578125 -6.472656 0.726562 -7.226562 1.03125 -7.9375 C 1.332031 -8.644531 1.753906 -9.269531 2.296875 -9.8125 C 2.835938 -10.351562 3.460938 -10.773438 4.171875 -11.078125 C 4.878906 -11.378906 5.632812 -11.53125 6.4375 -11.53125 C 7.300781 -11.53125 8.101562 -11.351562 8.84375 -11 C 9.582031 -10.65625 10.222656 -10.1875 10.765625 -9.59375 C 11.316406 -9 11.71875 -8.3125 11.96875 -7.53125 L 9.1875 -7.53125 C 8.957031 -8.039062 8.582031 -8.441406 8.0625 -8.734375 C 7.550781 -9.035156 7.007812 -9.1875 6.4375 -9.1875 C 5.820312 -9.1875 5.265625 -9.023438 4.765625 -8.703125 C 4.265625 -8.390625 3.863281 -7.96875 3.5625 -7.4375 C 3.269531 -6.90625 3.125 -6.316406 3.125 -5.671875 C 3.125 -5.023438 3.269531 -4.4375 3.5625 -3.90625 C 3.863281 -3.382812 4.265625 -2.960938 4.765625 -2.640625 C 5.265625 -2.328125 5.820312 -2.171875 6.4375 -2.171875 C 7.019531 -2.171875 7.566406 -2.328125 8.078125 -2.640625 C 8.597656 -2.953125 8.972656 -3.359375 9.203125 -3.859375 Z M 9.203125 -3.859375 "/></g></g></g><g fill="#ffffff" fill-opacity="1"><g transform="translate(17.14526, 16.002512)"><g><path d="M 1 0 L 1 -11.359375 L 3.5 -11.359375 L 3.5 -2.265625 L 7.578125 -2.265625 L 7.578125 0 Z M 1 0 "/></g></g></g><g fill="#ffffff" fill-opacity="1"><g transform="translate(29.066669, 16.002512)"><g><path d="M 3.5 0 L 1 0 L 1 -11.359375 L 3.5 -11.359375 Z M 3.5 0 "/></g></g></g><g fill="#ffffff" fill-opacity="1"><g transform="translate(37.331515, 16.002512)"><g><path d="M 9.921875 0 L 7.421875 0 L 3.5 -7.078125 L 3.5 0 L 1 0 L 1 -11.359375 L 3.5 -11.359375 L 7.421875 -4.28125 L 7.421875 -11.359375 L 9.921875 -11.359375 Z M 9.921875 0 "/></g></g></g><g fill="#ffffff" fill-opacity="1"><g transform="translate(52.007866, 16.002512)"><g><path d="M 3.5 0 L 1 0 L 1 -11.359375 L 3.5 -11.359375 Z M 3.5 0 "/></g></g></g><g fill="#ffffff" fill-opacity="1"><g transform="translate(60.272715, 16.002512)"><g><path d="M 9.203125 -3.859375 L 12 -3.859375 C 11.738281 -3.078125 11.332031 -2.382812 10.78125 -1.78125 C 10.238281 -1.175781 9.59375 -0.695312 8.84375 -0.34375 C 8.101562 0 7.300781 0.171875 6.4375 0.171875 C 5.632812 0.171875 4.878906 0.0195312 4.171875 -0.28125 C 3.460938 -0.582031 2.835938 -1.003906 2.296875 -1.546875 C 1.753906 -2.085938 1.332031 -2.707031 1.03125 -3.40625 C 0.726562 -4.113281 0.578125 -4.867188 0.578125 -5.671875 C 0.578125 -6.472656 0.726562 -7.226562 1.03125 -7.9375 C 1.332031 -8.644531 1.753906 -9.269531 2.296875 -9.8125 C 2.835938 -10.351562 3.460938 -10.773438 4.171875 -11.078125 C 4.878906 -11.378906 5.632812 -11.53125 6.4375 -11.53125 C 7.300781 -11.53125 8.101562 -11.351562 8.84375 -11 C 9.582031 -10.65625 10.222656 -10.1875 10.765625 -9.59375 C 11.316406 -9 11.71875 -8.3125 11.96875 -7.53125 L 9.1875 -7.53125 C 8.957031 -8.039062 8.582031 -8.441406 8.0625 -8.734375 C 7.550781 -9.035156 7.007812 -9.1875 6.4375 -9.1875 C 5.820312 -9.1875 5.265625 -9.023438 4.765625 -8.703125 C 4.265625 -8.390625 3.863281 -7.96875 3.5625 -7.4375 C 3.269531 -6.90625 3.125 -6.316406 3.125 -5.671875 C 3.125 -5.023438 3.269531 -4.4375 3.5625 -3.90625 C 3.863281 -3.382812 4.265625 -2.960938 4.765625 -2.640625 C 5.265625 -2.328125 5.820312 -2.171875 6.4375 -2.171875 C 7.019531 -2.171875 7.566406 -2.328125 8.078125 -2.640625 C 8.597656 -2.953125 8.972656 -3.359375 9.203125 -3.859375 Z M 9.203125 -3.859375 "/></g></g></g><g fill="#ffffff" fill-opacity="1"><g transform="translate(75.717111, 16.002512)"><g><path d="M 7.1875 -4.34375 L 5.75 -8.390625 L 4.3125 -4.34375 Z M 11.421875 0 L 8.734375 0 L 7.921875 -2.28125 L 3.59375 -2.28125 L 2.765625 0 L 0.078125 0 L 4.6875 -11.359375 L 6.8125 -11.359375 Z M 11.421875 0 "/></g></g></g><g fill="#ffffff" fill-opacity="1"><g transform="translate(90.977844, 16.002512)"><g><path d="M 1 0 L 1 -11.359375 L 3.5 -11.359375 L 3.5 -2.265625 L 7.578125 -2.265625 L 7.578125 0 Z M 1 0 "/></g></g></g><g fill="#ffffff" fill-opacity="1"><g transform="translate(102.899259, 16.002512)"><g/></g></g><g fill="#ffffff" fill-opacity="1"><g transform="translate(110.830172, 16.002512)"><g><path d="M 3.5 0 L 1 0 L 1 -11.359375 L 3.5 -11.359375 Z M 3.5 0 "/></g></g></g><g fill="#ffffff" fill-opacity="1"><g transform="translate(119.095018, 16.002512)"><g><path d="M 9.921875 0 L 7.421875 0 L 3.5 -7.078125 L 3.5 0 L 1 0 L 1 -11.359375 L 3.5 -11.359375 L 7.421875 -4.28125 L 7.421875 -11.359375 L 9.921875 -11.359375 Z M 9.921875 0 "/></g></g></g><g fill="#ffffff" fill-opacity="1"><g transform="translate(133.771369, 16.002512)"><g><path d="M 5.828125 -9.09375 L 5.828125 0 L 3.328125 0 L 3.328125 -9.09375 L 0.078125 -9.09375 L 0.078125 -11.359375 L 9.0625 -11.359375 L 9.0625 -9.09375 Z M 5.828125 -9.09375 "/></g></g></g><g fill="#ffffff" fill-opacity="1"><g transform="translate(146.677877, 16.002512)"><g><path d="M 7.578125 -2.265625 L 7.578125 0 L 1 0 L 1 -11.359375 L 7.578125 -11.359375 L 7.578125 -9.09375 L 3.5 -9.09375 L 3.5 -6.828125 L 7.421875 -6.828125 L 7.421875 -4.5625 L 3.5 -4.5625 L 3.5 -2.265625 Z M 7.578125 -2.265625 "/></g></g></g><g fill="#ffffff" fill-opacity="1"><g transform="translate(159.0167, 16.002512)"><g><path d="M 1 0 L 1 -11.359375 L 3.5 -11.359375 L 3.5 -2.265625 L 7.578125 -2.265625 L 7.578125 0 Z M 1 0 "/></g></g></g><g fill="#ffffff" fill-opacity="1"><g transform="translate(170.938108, 16.002512)"><g><path d="M 1 0 L 1 -11.359375 L 3.5 -11.359375 L 3.5 -2.265625 L 7.578125 -2.265625 L 7.578125 0 Z M 1 0 "/></g></g></g><g fill="#ffffff" fill-opacity="1"><g transform="translate(182.85953, 16.002512)"><g><path d="M 3.5 0 L 1 0 L 1 -11.359375 L 3.5 -11.359375 Z M 3.5 0 "/></g></g></g><g fill="#ffffff" fill-opacity="1"><g transform="translate(191.124376, 16.002512)"><g><path d="M 6.6875 -9.1875 C 6.082031 -9.1875 5.53125 -9.023438 5.03125 -8.703125 C 4.53125 -8.378906 4.128906 -7.945312 3.828125 -7.40625 C 3.523438 -6.875 3.375 -6.285156 3.375 -5.640625 C 3.375 -5.003906 3.523438 -4.414062 3.828125 -3.875 C 4.128906 -3.34375 4.53125 -2.914062 5.03125 -2.59375 C 5.53125 -2.269531 6.082031 -2.109375 6.6875 -2.109375 C 7.050781 -2.109375 7.4375 -2.160156 7.84375 -2.265625 C 8.25 -2.367188 8.625 -2.570312 8.96875 -2.875 C 9.320312 -3.175781 9.601562 -3.609375 9.8125 -4.171875 L 6.921875 -4.171875 L 6.921875 -6.0625 L 12.515625 -6.0625 L 12.515625 -5.671875 C 12.515625 -4.867188 12.363281 -4.113281 12.0625 -3.40625 C 11.757812 -2.707031 11.335938 -2.085938 10.796875 -1.546875 C 10.265625 -1.003906 9.648438 -0.582031 8.953125 -0.28125 C 8.253906 0.0195312 7.5 0.171875 6.6875 0.171875 C 5.882812 0.171875 5.128906 0.0195312 4.421875 -0.28125 C 3.710938 -0.59375 3.085938 -1.015625 2.546875 -1.546875 C 2.015625 -2.085938 1.59375 -2.707031 1.28125 -3.40625 C 0.976562 -4.113281 0.828125 -4.867188 0.828125 -5.671875 C 0.828125 -6.472656 0.976562 -7.226562 1.28125 -7.9375 C 1.59375 -8.644531 2.015625 -9.265625 2.546875 -9.796875 C 3.085938 -10.335938 3.710938 -10.757812 4.421875 -11.0625 C 5.128906 -11.375 5.882812 -11.53125 6.6875 -11.53125 C 7.519531 -11.53125 8.304688 -11.359375 9.046875 -11.015625 C 9.796875 -10.671875 10.445312 -10.203125 11 -9.609375 C 11.5625 -9.015625 11.972656 -8.320312 12.234375 -7.53125 L 9.46875 -7.53125 C 9.1875 -8.132812 8.789062 -8.5625 8.28125 -8.8125 C 7.769531 -9.0625 7.238281 -9.1875 6.6875 -9.1875 Z M 6.6875 -9.1875 "/></g></g></g><g fill="#ffffff" fill-opacity="1"><g transform="translate(207.971288, 16.002512)"><g><path d="M 7.578125 -2.265625 L 7.578125 0 L 1 0 L 1 -11.359375 L 7.578125 -11.359375 L 7.578125 -9.09375 L 3.5 -9.09375 L 3.5 -6.828125 L 7.421875 -6.828125 L 7.421875 -4.5625 L 3.5 -4.5625 L 3.5 -2.265625 Z M 7.578125 -2.265625 "/></g></g></g><g fill="#ffffff" fill-opacity="1"><g transform="translate(220.310112, 16.002512)"><g><path d="M 9.921875 0 L 7.421875 0 L 3.5 -7.078125 L 3.5 0 L 1 0 L 1 -11.359375 L 3.5 -11.359375 L 7.421875 -4.28125 L 7.421875 -11.359375 L 9.921875 -11.359375 Z M 9.921875 0 "/></g></g></g><g fill="#ffffff" fill-opacity="1"><g transform="translate(234.986463, 16.002512)"><g><path d="M 9.203125 -3.859375 L 12 -3.859375 C 11.738281 -3.078125 11.332031 -2.382812 10.78125 -1.78125 C 10.238281 -1.175781 9.59375 -0.695312 8.84375 -0.34375 C 8.101562 0 7.300781 0.171875 6.4375 0.171875 C 5.632812 0.171875 4.878906 0.0195312 4.171875 -0.28125 C 3.460938 -0.582031 2.835938 -1.003906 2.296875 -1.546875 C 1.753906 -2.085938 1.332031 -2.707031 1.03125 -3.40625 C 0.726562 -4.113281 0.578125 -4.867188 0.578125 -5.671875 C 0.578125 -6.472656 0.726562 -7.226562 1.03125 -7.9375 C 1.332031 -8.644531 1.753906 -9.269531 2.296875 -9.8125 C 2.835938 -10.351562 3.460938 -10.773438 4.171875 -11.078125 C 4.878906 -11.378906 5.632812 -11.53125 6.4375 -11.53125 C 7.300781 -11.53125 8.101562 -11.351562 8.84375 -11 C 9.582031 -10.65625 10.222656 -10.1875 10.765625 -9.59375 C 11.316406 -9 11.71875 -8.3125 11.96875 -7.53125 L 9.1875 -7.53125 C 8.957031 -8.039062 8.582031 -8.441406 8.0625 -8.734375 C 7.550781 -9.035156 7.007812 -9.1875 6.4375 -9.1875 C 5.820312 -9.1875 5.265625 -9.023438 4.765625 -8.703125 C 4.265625 -8.390625 3.863281 -7.96875 3.5625 -7.4375 C 3.269531 -6.90625 3.125 -6.316406 3.125 -5.671875 C 3.125 -5.023438 3.269531 -4.4375 3.5625 -3.90625 C 3.863281 -3.382812 4.265625 -2.960938 4.765625 -2.640625 C 5.265625 -2.328125 5.820312 -2.171875 6.4375 -2.171875 C 7.019531 -2.171875 7.566406 -2.328125 8.078125 -2.640625 C 8.597656 -2.953125 8.972656 -3.359375 9.203125 -3.859375 Z M 9.203125 -3.859375 "/></g></g></g><g fill="#ffffff" fill-opacity="1"><g transform="translate(251.148828, 16.002512)"><g><path d="M 7.578125 -2.265625 L 7.578125 0 L 1 0 L 1 -11.359375 L 7.578125 -11.359375 L 7.578125 -9.09375 L 3.5 -9.09375 L 3.5 -6.828125 L 7.421875 -6.828125 L 7.421875 -4.5625 L 3.5 -4.5625 L 3.5 -2.265625 Z M 7.578125 -2.265625 "/></g></g></g><g fill="#ffffff" fill-opacity="1"><g transform="translate(263.487651, 16.002512)"><g/></g></g><g fill="#ffffff" fill-opacity="1"><g transform="translate(271.418565, 16.002512)"><g><path d="M 7.421875 -4.5625 L 3.5 -4.5625 L 3.5 0 L 1 0 L 1 -11.359375 L 7.578125 -11.359375 L 7.578125 -9.09375 L 3.5 -9.09375 L 3.5 -6.828125 L 7.421875 -6.828125 Z M 7.421875 -4.5625 "/></g></g></g><g fill="#ffffff" fill-opacity="1"><g transform="translate(283.590421, 16.002512)"><g><path d="M 9.765625 -5.703125 C 9.765625 -6.285156 9.609375 -6.828125 9.296875 -7.328125 C 8.992188 -7.835938 8.585938 -8.25 8.078125 -8.5625 C 7.566406 -8.875 7.019531 -9.03125 6.4375 -9.03125 C 5.851562 -9.03125 5.304688 -8.875 4.796875 -8.5625 C 4.285156 -8.25 3.875 -7.835938 3.5625 -7.328125 C 3.25 -6.828125 3.09375 -6.285156 3.09375 -5.703125 C 3.09375 -5.117188 3.25 -4.570312 3.5625 -4.0625 C 3.875 -3.550781 4.285156 -3.132812 4.796875 -2.8125 C 5.304688 -2.5 5.851562 -2.34375 6.4375 -2.34375 C 7.019531 -2.34375 7.566406 -2.5 8.078125 -2.8125 C 8.585938 -3.132812 8.992188 -3.550781 9.296875 -4.0625 C 9.609375 -4.570312 9.765625 -5.117188 9.765625 -5.703125 Z M 12.28125 -5.671875 C 12.28125 -4.898438 12.125 -4.160156 11.8125 -3.453125 C 11.5 -2.742188 11.070312 -2.117188 10.53125 -1.578125 C 9.988281 -1.035156 9.363281 -0.609375 8.65625 -0.296875 C 7.957031 0.015625 7.21875 0.171875 6.4375 0.171875 C 5.65625 0.171875 4.910156 0.015625 4.203125 -0.296875 C 3.492188 -0.609375 2.867188 -1.035156 2.328125 -1.578125 C 1.785156 -2.117188 1.359375 -2.742188 1.046875 -3.453125 C 0.734375 -4.160156 0.578125 -4.898438 0.578125 -5.671875 C 0.578125 -6.460938 0.734375 -7.207031 1.046875 -7.90625 C 1.359375 -8.613281 1.785156 -9.238281 2.328125 -9.78125 C 2.867188 -10.320312 3.492188 -10.75 4.203125 -11.0625 C 4.910156 -11.375 5.65625 -11.53125 6.4375 -11.53125 C 7.21875 -11.53125 7.957031 -11.375 8.65625 -11.0625 C 9.363281 -10.75 9.988281 -10.320312 10.53125 -9.78125 C 11.070312 -9.238281 11.5 -8.613281 11.8125 -7.90625 C 12.125 -7.207031 12.28125 -6.460938 12.28125 -5.671875 Z M 12.28125 -5.671875 "/></g></g></g><g fill="#ffffff" fill-opacity="1"><g transform="translate(300.203581, 16.002512)"><g><path d="M 3.5 -4.0625 L 3.5 0 L 1 0 L 1 -11.359375 L 5.265625 -11.359375 C 5.878906 -11.359375 6.445312 -11.203125 6.96875 -10.890625 C 7.5 -10.585938 7.925781 -10.160156 8.25 -9.609375 C 8.570312 -9.066406 8.734375 -8.4375 8.734375 -7.71875 C 8.734375 -7.082031 8.613281 -6.519531 8.375 -6.03125 C 8.144531 -5.539062 7.832031 -5.140625 7.4375 -4.828125 C 7.050781 -4.515625 6.617188 -4.296875 6.140625 -4.171875 L 9.40625 0 L 6.234375 0 L 3.53125 -4.0625 Z M 4.84375 -9.390625 L 3.5 -9.390625 L 3.5 -6.03125 L 4.84375 -6.03125 C 5.207031 -6.03125 5.546875 -6.171875 5.859375 -6.453125 C 6.179688 -6.742188 6.34375 -7.164062 6.34375 -7.71875 C 6.34375 -8.238281 6.179688 -8.644531 5.859375 -8.9375 C 5.546875 -9.238281 5.207031 -9.390625 4.84375 -9.390625 Z M 4.84375 -9.390625 "/></g></g></g><g fill="#ffffff" fill-opacity="1"><g transform="translate(313.160165, 16.002512)"><g/></g></g><g fill="#ffffff" fill-opacity="1"><g transform="translate(321.091078, 16.002512)"><g><path d="M 5.40625 -1.765625 C 5.675781 -1.765625 5.96875 -1.804688 6.28125 -1.890625 C 6.59375 -1.972656 6.863281 -2.113281 7.09375 -2.3125 C 7.320312 -2.507812 7.4375 -2.773438 7.4375 -3.109375 C 7.4375 -3.421875 7.316406 -3.671875 7.078125 -3.859375 C 6.835938 -4.046875 6.519531 -4.203125 6.125 -4.328125 C 5.738281 -4.453125 5.3125 -4.566406 4.84375 -4.671875 C 4.382812 -4.773438 3.921875 -4.898438 3.453125 -5.046875 C 2.984375 -5.203125 2.554688 -5.398438 2.171875 -5.640625 C 1.785156 -5.890625 1.472656 -6.207031 1.234375 -6.59375 C 0.992188 -6.988281 0.875 -7.484375 0.875 -8.078125 C 0.875 -8.671875 0.992188 -9.179688 1.234375 -9.609375 C 1.484375 -10.035156 1.8125 -10.390625 2.21875 -10.671875 C 2.625 -10.960938 3.078125 -11.175781 3.578125 -11.3125 C 4.085938 -11.457031 4.597656 -11.53125 5.109375 -11.53125 C 5.890625 -11.53125 6.617188 -11.40625 7.296875 -11.15625 C 7.972656 -10.914062 8.523438 -10.53125 8.953125 -10 C 9.390625 -9.46875 9.617188 -8.769531 9.640625 -7.90625 L 7.21875 -7.90625 C 7.144531 -8.488281 6.9375 -8.894531 6.59375 -9.125 C 6.25 -9.351562 5.765625 -9.46875 5.140625 -9.46875 C 4.910156 -9.46875 4.664062 -9.425781 4.40625 -9.34375 C 4.144531 -9.269531 3.921875 -9.144531 3.734375 -8.96875 C 3.546875 -8.800781 3.453125 -8.570312 3.453125 -8.28125 C 3.453125 -7.988281 3.570312 -7.757812 3.8125 -7.59375 C 4.050781 -7.425781 4.363281 -7.285156 4.75 -7.171875 C 5.144531 -7.066406 5.578125 -6.960938 6.046875 -6.859375 C 6.515625 -6.765625 6.976562 -6.644531 7.4375 -6.5 C 7.90625 -6.351562 8.332031 -6.15625 8.71875 -5.90625 C 9.101562 -5.65625 9.414062 -5.328125 9.65625 -4.921875 C 9.894531 -4.523438 10.015625 -4.015625 10.015625 -3.390625 C 10.015625 -2.722656 9.878906 -2.15625 9.609375 -1.6875 C 9.347656 -1.21875 8.988281 -0.84375 8.53125 -0.5625 C 8.082031 -0.28125 7.578125 -0.0703125 7.015625 0.0625 C 6.460938 0.195312 5.894531 0.265625 5.3125 0.265625 C 4.476562 0.265625 3.695312 0.125 2.96875 -0.15625 C 2.238281 -0.4375 1.644531 -0.875 1.1875 -1.46875 C 0.738281 -2.0625 0.507812 -2.816406 0.5 -3.734375 L 3.046875 -3.734375 C 3.078125 -3.054688 3.328125 -2.554688 3.796875 -2.234375 C 4.265625 -1.921875 4.800781 -1.765625 5.40625 -1.765625 Z M 5.40625 -1.765625 "/></g></g></g><g fill="#ffffff" fill-opacity="1"><g transform="translate(335.36674, 16.002512)"><g><path d="M 7.1875 -4.34375 L 5.75 -8.390625 L 4.3125 -4.34375 Z M 11.421875 0 L 8.734375 0 L 7.921875 -2.28125 L 3.59375 -2.28125 L 2.765625 0 L 0.078125 0 L 4.6875 -11.359375 L 6.8125 -11.359375 Z M 11.421875 0 "/></g></g></g><g fill="#ffffff" fill-opacity="1"><g transform="translate(350.627458, 16.002512)"><g><path d="M 7.421875 -4.5625 L 3.5 -4.5625 L 3.5 0 L 1 0 L 1 -11.359375 L 7.578125 -11.359375 L 7.578125 -9.09375 L 3.5 -9.09375 L 3.5 -6.828125 L 7.421875 -6.828125 Z M 7.421875 -4.5625 "/></g></g></g><g fill="#ffffff" fill-opacity="1"><g transform="translate(362.799315, 16.002512)"><g><path d="M 7.578125 -2.265625 L 7.578125 0 L 1 0 L 1 -11.359375 L 7.578125 -11.359375 L 7.578125 -9.09375 L 3.5 -9.09375 L 3.5 -6.828125 L 7.421875 -6.828125 L 7.421875 -4.5625 L 3.5 -4.5625 L 3.5 -2.265625 Z M 7.578125 -2.265625 "/></g></g></g><g fill="#ffffff" fill-opacity="1"><g transform="translate(375.138138, 16.002512)"><g><path d="M 3.5 -4.0625 L 3.5 0 L 1 0 L 1 -11.359375 L 5.265625 -11.359375 C 5.878906 -11.359375 6.445312 -11.203125 6.96875 -10.890625 C 7.5 -10.585938 7.925781 -10.160156 8.25 -9.609375 C 8.570312 -9.066406 8.734375 -8.4375 8.734375 -7.71875 C 8.734375 -7.082031 8.613281 -6.519531 8.375 -6.03125 C 8.144531 -5.539062 7.832031 -5.140625 7.4375 -4.828125 C 7.050781 -4.515625 6.617188 -4.296875 6.140625 -4.171875 L 9.40625 0 L 6.234375 0 L 3.53125 -4.0625 Z M 4.84375 -9.390625 L 3.5 -9.390625 L 3.5 -6.03125 L 4.84375 -6.03125 C 5.207031 -6.03125 5.546875 -6.171875 5.859375 -6.453125 C 6.179688 -6.742188 6.34375 -7.164062 6.34375 -7.71875 C 6.34375 -8.238281 6.179688 -8.644531 5.859375 -8.9375 C 5.546875 -9.238281 5.207031 -9.390625 4.84375 -9.390625 Z M 4.84375 -9.390625 "/></g></g></g><g fill="#ffffff" fill-opacity="1"><g transform="translate(388.094751, 16.002512)"><g/></g></g><g fill="#ffffff" fill-opacity="1"><g transform="translate(396.025664, 16.002512)"><g><path d="M 7.1875 -4.34375 L 5.75 -8.390625 L 4.3125 -4.34375 Z M 11.421875 0 L 8.734375 0 L 7.921875 -2.28125 L 3.59375 -2.28125 L 2.765625 0 L 0.078125 0 L 4.6875 -11.359375 L 6.8125 -11.359375 Z M 11.421875 0 "/></g></g></g><g fill="#ffffff" fill-opacity="1"><g transform="translate(411.286412, 16.002512)"><g><path d="M 3.5 0 L 1 0 L 1 -11.359375 L 3.5 -11.359375 Z M 3.5 0 "/></g></g></g></g></g></g></g></g></svg>