<svg xmlns="http://www.w3.org/2000/svg" xmlns:xlink="http://www.w3.org/1999/xlink" width="2000" zoomAndPan="magnify" viewBox="0 0 1500 1499.999933" height="2000" preserveAspectRatio="xMidYMid meet" version="1.0"><defs><clipPath id="c3bf6d7bc5"><path d="M 0 0.398438 L 1500 0.398438 L 1500 497.269531 L 0 497.269531 Z M 0 0.398438 " clip-rule="nonzero"/></clipPath><clipPath id="263d9d8749"><path d="M 0 79 L 1500 79 L 1500 420 L 0 420 Z M 0 79 " clip-rule="nonzero"/></clipPath><clipPath id="9e69a1043d"><path d="M 0 729.570312 L 1500 729.570312 L 1500 1226.628906 L 0 1226.628906 Z M 0 729.570312 " clip-rule="nonzero"/></clipPath><clipPath id="d19845624c"><path d="M 0 808 L 1500 808 L 1500 1149 L 0 1149 Z M 0 808 " clip-rule="nonzero"/></clipPath><clipPath id="4539b08d62"><path d="M 0 367.078125 L 1500 367.078125 L 1500 864.136719 L 0 864.136719 Z M 0 367.078125 " clip-rule="nonzero"/></clipPath><clipPath id="b3b803c82b"><path d="M 0 446 L 1500 446 L 1500 787 L 0 787 Z M 0 446 " clip-rule="nonzero"/></clipPath><clipPath id="5f9daa5b26"><rect x="0" width="1500" y="0" height="1228"/></clipPath></defs><rect x="-150" width="1800" fill="#ffffff" y="-149.999993" height="1799.99992" fill-opacity="1"/><rect x="-150" width="1800" fill="#173664" y="-149.999993" height="1799.99992" fill-opacity="1"/><g transform="matrix(1, 0, 0, 1, 0, 122)"><g clip-path="url(#5f9daa5b26)"><g clip-path="url(#c3bf6d7bc5)"><path fill="#173664" d="M -2835.539062 498.339844 C -2512.554688 498.339844 -2341.953125 428.761719 -2191.511719 367.445312 C -2050.171875 309.890625 -1916.609375 255.492188 -1643.648438 255.492188 C -1370.6875 255.492188 -1237.125 309.890625 -1095.789062 367.445312 C -945.222656 428.761719 -774.621094 498.339844 -451.757812 498.339844 C -128.773438 498.339844 41.828125 428.761719 192.269531 367.445312 C 333.605469 309.890625 467.050781 255.492188 740.132812 255.492188 C 1013.210938 255.492188 1146.65625 309.890625 1287.992188 367.445312 C 1438.558594 428.761719 1609.035156 498.339844 1932.019531 498.339844 C 2255.007812 498.339844 2425.605469 428.761719 2576.050781 367.445312 C 2717.386719 309.890625 2850.832031 255.492188 3123.910156 255.492188 L 3123.910156 0.503906 C 2800.925781 0.503906 2630.328125 70.078125 2479.882812 131.398438 C 2338.546875 188.953125 2205.101562 243.351562 1932.019531 243.351562 C 1658.941406 243.351562 1525.496094 188.953125 1384.160156 131.398438 C 1233.714844 70.078125 1063.117188 0.503906 740.132812 0.503906 C 417.144531 0.503906 246.546875 69.957031 96.101562 131.398438 C -45.234375 188.953125 -178.679688 243.351562 -451.757812 243.351562 C -724.71875 243.351562 -858.285156 188.953125 -999.621094 131.398438 C -1150.0625 70.078125 -1320.664062 0.503906 -1643.648438 0.503906 C -1966.632812 0.503906 -2137.234375 69.957031 -2287.675781 131.398438 C -2429.015625 188.953125 -2562.578125 243.351562 -2835.539062 243.351562 Z M -2835.539062 498.339844 " fill-opacity="1" fill-rule="nonzero"/></g><g clip-path="url(#263d9d8749)"><path fill="#ffffff" d="M -2835.539062 419.414062 C -2527.972656 419.414062 -2372.066406 355.910156 -2221.257812 294.347656 C -2072.515625 233.757812 -1932.148438 176.566406 -1643.648438 176.566406 C -1355.148438 176.566406 -1214.660156 233.757812 -1066.039062 294.347656 C -915.230469 355.789062 -759.203125 419.414062 -451.757812 419.414062 C -144.316406 419.414062 11.714844 355.910156 162.519531 294.347656 C 311.265625 233.757812 451.628906 176.566406 740.132812 176.566406 C 1028.632812 176.566406 1169 233.757812 1317.742188 294.347656 C 1468.550781 355.789062 1624.457031 419.414062 1932.019531 419.414062 C 2239.464844 419.414062 2395.492188 355.910156 2546.300781 294.347656 C 2695.042969 233.757812 2835.410156 176.566406 3123.910156 176.566406 L 3123.910156 79.429688 C 2816.46875 79.429688 2660.4375 142.933594 2509.632812 204.496094 C 2360.886719 265.085938 2220.523438 322.273438 1932.019531 322.273438 C 1643.519531 322.273438 1503.15625 265.085938 1354.410156 204.496094 C 1203.601562 143.054688 1047.574219 79.429688 740.132812 79.429688 C 432.6875 79.429688 276.660156 142.933594 125.851562 204.496094 C -22.890625 265.085938 -163.257812 322.273438 -451.757812 322.273438 C -740.261719 322.273438 -880.625 265.085938 -1029.367188 204.496094 C -1180.175781 143.054688 -1336.207031 79.429688 -1643.648438 79.429688 C -1951.09375 79.429688 -2107.121094 142.933594 -2257.929688 204.496094 C -2406.550781 265.085938 -2547.039062 322.273438 -2835.539062 322.273438 Z M -2835.539062 419.414062 " fill-opacity="1" fill-rule="nonzero"/></g><g clip-path="url(#9e69a1043d)"><path fill="#173664" d="M -2835.539062 1227.699219 C -2512.554688 1227.699219 -2341.953125 1158.121094 -2191.511719 1096.804688 C -2050.171875 1039.25 -1916.609375 984.851562 -1643.648438 984.851562 C -1370.6875 984.851562 -1237.125 1039.25 -1095.789062 1096.804688 C -945.222656 1158.121094 -774.621094 1227.699219 -451.757812 1227.699219 C -128.773438 1227.699219 41.828125 1158.121094 192.269531 1096.804688 C 333.605469 1039.25 467.050781 984.851562 740.132812 984.851562 C 1013.210938 984.851562 1146.65625 1039.25 1287.992188 1096.804688 C 1438.558594 1158.121094 1609.035156 1227.699219 1932.019531 1227.699219 C 2255.007812 1227.699219 2425.605469 1158.121094 2576.050781 1096.804688 C 2717.386719 1039.25 2850.832031 984.851562 3123.910156 984.851562 L 3123.910156 729.863281 C 2800.925781 729.863281 2630.328125 799.4375 2479.882812 860.757812 C 2338.546875 918.3125 2205.101562 972.710938 1932.019531 972.710938 C 1658.941406 972.710938 1525.496094 918.3125 1384.160156 860.757812 C 1233.714844 799.4375 1063.117188 729.863281 740.132812 729.863281 C 417.144531 729.863281 246.546875 799.316406 96.101562 860.757812 C -45.234375 918.3125 -178.679688 972.710938 -451.757812 972.710938 C -724.71875 972.710938 -858.285156 918.3125 -999.621094 860.757812 C -1150.0625 799.4375 -1320.664062 729.863281 -1643.648438 729.863281 C -1966.632812 729.863281 -2137.234375 799.316406 -2287.675781 860.757812 C -2429.015625 918.3125 -2562.578125 972.710938 -2835.539062 972.710938 Z M -2835.539062 1227.699219 " fill-opacity="1" fill-rule="nonzero"/></g><g clip-path="url(#d19845624c)"><path fill="#ffffff" d="M -2835.539062 1148.773438 C -2527.972656 1148.773438 -2372.066406 1085.269531 -2221.257812 1023.707031 C -2072.515625 963.117188 -1932.148438 905.925781 -1643.648438 905.925781 C -1355.148438 905.925781 -1214.660156 963.117188 -1066.039062 1023.707031 C -915.230469 1085.148438 -759.203125 1148.773438 -451.757812 1148.773438 C -144.316406 1148.773438 11.714844 1085.269531 162.519531 1023.707031 C 311.265625 963.117188 451.628906 905.925781 740.132812 905.925781 C 1028.632812 905.925781 1169 963.117188 1317.742188 1023.707031 C 1468.550781 1085.148438 1624.457031 1148.773438 1932.019531 1148.773438 C 2239.464844 1148.773438 2395.492188 1085.269531 2546.300781 1023.707031 C 2695.042969 963.117188 2835.410156 905.925781 3123.910156 905.925781 L 3123.910156 808.789062 C 2816.46875 808.789062 2660.4375 872.292969 2509.632812 933.855469 C 2360.886719 994.445312 2220.523438 1051.632812 1932.019531 1051.632812 C 1643.519531 1051.632812 1503.15625 994.445312 1354.410156 933.855469 C 1203.601562 872.414062 1047.574219 808.789062 740.132812 808.789062 C 432.6875 808.789062 276.660156 872.292969 125.851562 933.855469 C -22.890625 994.445312 -163.257812 1051.632812 -451.757812 1051.632812 C -740.261719 1051.632812 -880.625 994.445312 -1029.367188 933.855469 C -1180.175781 872.414062 -1336.207031 808.789062 -1643.648438 808.789062 C -1951.09375 808.789062 -2107.121094 872.292969 -2257.929688 933.855469 C -2406.550781 994.445312 -2547.039062 1051.632812 -2835.539062 1051.632812 Z M -2835.539062 1148.773438 " fill-opacity="1" fill-rule="nonzero"/></g><g clip-path="url(#4539b08d62)"><path fill="#173664" d="M -2826.28125 865.207031 C -2503.292969 865.207031 -2332.695312 795.632812 -2182.25 734.3125 C -2040.914062 676.757812 -1907.351562 622.363281 -1634.390625 622.363281 C -1361.429688 622.363281 -1227.867188 676.757812 -1086.527344 734.3125 C -935.964844 795.632812 -765.363281 865.207031 -442.5 865.207031 C -119.515625 865.207031 51.085938 795.632812 201.527344 734.3125 C 342.863281 676.757812 476.308594 622.363281 749.390625 622.363281 C 1022.46875 622.363281 1155.914062 676.757812 1297.25 734.3125 C 1447.816406 795.632812 1618.292969 865.207031 1941.28125 865.207031 C 2264.265625 865.207031 2434.863281 795.632812 2585.308594 734.3125 C 2726.644531 676.757812 2860.089844 622.363281 3133.167969 622.363281 L 3133.167969 367.371094 C 2810.183594 367.371094 2639.585938 436.949219 2489.140625 498.265625 C 2347.804688 555.820312 2214.359375 610.21875 1941.28125 610.21875 C 1668.199219 610.21875 1534.753906 555.820312 1393.417969 498.265625 C 1242.976562 436.949219 1072.375 367.371094 749.390625 367.371094 C 426.402344 367.371094 255.804688 436.828125 105.359375 498.265625 C -35.976562 555.820312 -169.417969 610.21875 -442.5 610.21875 C -715.460938 610.21875 -849.023438 555.820312 -990.363281 498.265625 C -1140.804688 436.949219 -1311.40625 367.371094 -1634.390625 367.371094 C -1957.375 367.371094 -2127.976562 436.828125 -2278.417969 498.265625 C -2419.753906 555.820312 -2553.320312 610.21875 -2826.28125 610.21875 Z M -2826.28125 865.207031 " fill-opacity="1" fill-rule="nonzero"/></g><g clip-path="url(#b3b803c82b)"><path fill="#b28735" d="M -2826.28125 786.28125 C -2518.714844 786.28125 -2362.808594 722.777344 -2212 661.21875 C -2063.257812 600.625 -1922.890625 543.4375 -1634.390625 543.4375 C -1345.890625 543.4375 -1205.402344 600.625 -1056.78125 661.21875 C -905.972656 722.65625 -749.945312 786.28125 -442.5 786.28125 C -135.058594 786.28125 20.972656 722.777344 171.78125 661.21875 C 320.523438 600.625 460.886719 543.4375 749.390625 543.4375 C 1037.890625 543.4375 1178.257812 600.625 1327 661.21875 C 1477.808594 722.65625 1633.714844 786.28125 1941.28125 786.28125 C 2248.722656 786.28125 2404.75 722.777344 2555.558594 661.21875 C 2704.304688 600.625 2844.667969 543.4375 3133.167969 543.4375 L 3133.167969 446.296875 C 2825.726562 446.296875 2669.695312 509.800781 2518.890625 571.363281 C 2370.144531 631.953125 2229.78125 689.144531 1941.28125 689.144531 C 1652.777344 689.144531 1512.414062 631.953125 1363.667969 571.363281 C 1212.863281 509.921875 1056.832031 446.296875 749.390625 446.296875 C 441.945312 446.296875 285.917969 509.800781 135.109375 571.363281 C -13.632812 631.953125 -154 689.144531 -442.5 689.144531 C -731 689.144531 -871.367188 631.953125 -1020.109375 571.363281 C -1170.917969 509.921875 -1326.945312 446.296875 -1634.390625 446.296875 C -1941.832031 446.296875 -2097.863281 509.800781 -2248.671875 571.363281 C -2397.292969 631.953125 -2537.777344 689.144531 -2826.28125 689.144531 Z M -2826.28125 786.28125 " fill-opacity="1" fill-rule="nonzero"/></g></g></g></svg>